<?xml version="1.0" encoding="utf-8"?>
<!-- Generator: Adobe Illustrator 25.0.0, SVG Export Plug-In . SVG Version: 6.00 Build 0)  -->
<svg version="1.1" id="Слой_1" xmlns="http://www.w3.org/2000/svg" xmlns:xlink="http://www.w3.org/1999/xlink" x="0px" y="0px"
	 viewBox="0 0 500 500" style="enable-background:new 0 0 500 500;" xml:space="preserve">
<style type="text/css">
	.st0{fill:#109D59;}
	.st1{fill:#34B67A;}
	.st2{fill:#3F5CA8;}
	.st3{fill:#43459C;}
	.st4{fill:#FFFFFF;}
	.st5{fill:#F5815A;}
	.st6{fill:#F15723;}
	.st7{fill:#DAE56B;}
	.st8{fill:#F2F2F2;}
	.st9{fill:#CDDC39;}
	.st10{fill:#FB5D00;}
	.st11{opacity:0.5;}
	.st12{fill:#FCF6A8;}
</style>
<g>
	<g>
		<rect x="86.68" y="99.99" class="st0" width="352.94" height="279.35"/>
		<rect x="97.89" y="109.1" class="st1" width="330.2" height="270.23"/>
		<rect x="66.29" y="379.33" class="st2" width="393.71" height="13.43"/>
		<path class="st0" d="M428.09,129.8v-2.3h-20.25v-18.4h-2.3v18.4h-26.35v-18.4h-2.3v18.4h-26.35v-18.4h-2.3v18.4h-26.46v-18.4h-2.3
			v18.4h-26.46v-18.4h-2.3v18.4h-26.46v-18.4h-2.3v18.4h-26.46v-18.4h-2.3v18.4h-26.46v-18.4h-2.3v18.4h-26.46v-18.4h-2.3v18.4
			H149.2v-18.4h-2.3v18.4h-26.46v-18.4h-2.3v18.4H97.89v2.3h20.25v26.46H97.89v2.3h20.25v26.46H97.89v2.3h20.25v26.46H97.89v2.3
			h20.25v26.46H97.89v2.3h20.25v26.46H97.89v2.3h20.25v26.46H97.89v2.3h20.25v26.46H97.89v2.3h20.25v26.46H97.89v2.3h20.25v19.43
			h2.3V359.9h26.46v19.43h2.3V359.9h26.46v19.43h2.3V359.9h26.46v19.43h2.3V359.9h26.46v19.43h2.3V359.9h26.46v19.43h2.3V359.9
			h26.46v19.43h2.3V359.9h26.46v19.43h2.3V359.9h26.46v19.43h2.3V359.9h26.35v19.43h2.3V359.9h26.35v19.43h2.3V359.9h20.25v-2.3
			h-20.25v-26.46h20.25v-2.3h-20.25v-26.46h20.25v-2.3h-20.25v-26.46h20.25v-2.3h-20.25v-26.46h20.25v-2.3h-20.25v-26.46h20.25v-2.3
			h-20.25v-26.46h20.25v-2.3h-20.25v-26.46h20.25v-2.3h-20.25V129.8H428.09z M376.89,129.8v26.46h-26.35V129.8H376.89z
			 M261.95,242.55h-26.46v-26.46h26.46V242.55z M264.25,216.09h26.46v26.46h-26.46V216.09z M233.18,242.55h-26.46v-26.46h26.46
			V242.55z M233.18,244.85v26.46h-26.46v-26.46H233.18z M235.49,244.85h26.46v26.46h-26.46V244.85z M264.25,244.85h26.46v26.46
			h-26.46V244.85z M293.01,244.85h26.46v26.46h-26.46V244.85z M293.01,242.55v-26.46h26.46v26.46H293.01z M293.01,213.79v-26.46
			h26.46v26.46H293.01z M290.71,213.79h-26.46v-26.46h26.46V213.79z M261.95,213.79h-26.46v-26.46h26.46V213.79z M233.18,213.79
			h-26.46v-26.46h26.46V213.79z M204.42,213.79h-26.46v-26.46h26.46V213.79z M204.42,216.09v26.46h-26.46v-26.46H204.42z
			 M204.42,244.85v26.46h-26.46v-26.46H204.42z M204.42,273.62v26.46h-26.46v-26.46H204.42z M206.72,273.62h26.46v26.46h-26.46
			V273.62z M235.49,273.62h26.46v26.46h-26.46V273.62z M264.25,273.62h26.46v26.46h-26.46V273.62z M293.01,273.62h26.46v26.46
			h-26.46V273.62z M321.77,273.62h26.46v26.46h-26.46V273.62z M321.77,271.31v-26.46h26.46v26.46H321.77z M321.77,242.55v-26.46
			h26.46v26.46H321.77z M321.77,213.79v-26.46h26.46v26.46H321.77z M321.77,185.03v-26.46h26.46v26.46H321.77z M319.47,185.03
			h-26.46v-26.46h26.46V185.03z M290.71,185.03h-26.46v-26.46h26.46V185.03z M261.95,185.03h-26.46v-26.46h26.46V185.03z
			 M233.18,185.03h-26.46v-26.46h26.46V185.03z M204.42,185.03h-26.46v-26.46h26.46V185.03z M175.66,185.03H149.2v-26.46h26.46
			V185.03z M175.66,187.33v26.46H149.2v-26.46H175.66z M175.66,216.09v26.46H149.2v-26.46H175.66z M175.66,244.85v26.46H149.2
			v-26.46H175.66z M175.66,273.62v26.46H149.2v-26.46H175.66z M175.66,302.38v26.46H149.2v-26.46H175.66z M177.96,302.38h26.46
			v26.46h-26.46V302.38z M206.72,302.38h26.46v26.46h-26.46V302.38z M235.49,302.38h26.46v26.46h-26.46V302.38z M264.25,302.38
			h26.46v26.46h-26.46V302.38z M293.01,302.38h26.46v26.46h-26.46V302.38z M321.77,302.38h26.46v26.46h-26.46V302.38z
			 M350.53,302.38h26.35v26.46h-26.35V302.38z M350.53,300.07v-26.46h26.35v26.46H350.53z M350.53,271.31v-26.46h26.35v26.46H350.53
			z M350.53,242.55v-26.46h26.35v26.46H350.53z M350.53,213.79v-26.46h26.35v26.46H350.53z M350.53,185.03v-26.46h26.35v26.46
			H350.53z M348.23,129.8v26.46h-26.46V129.8H348.23z M319.47,129.8v26.46h-26.46V129.8H319.47z M290.71,129.8v26.46h-26.46V129.8
			H290.71z M261.95,129.8v26.46h-26.46V129.8H261.95z M233.18,129.8v26.46h-26.46V129.8H233.18z M204.42,129.8v26.46h-26.46V129.8
			H204.42z M175.66,129.8v26.46H149.2V129.8H175.66z M120.44,129.8h26.46v26.46h-26.46V129.8z M120.44,158.57h26.46v26.46h-26.46
			V158.57z M120.44,187.33h26.46v26.46h-26.46V187.33z M120.44,216.09h26.46v26.46h-26.46V216.09z M120.44,244.85h26.46v26.46
			h-26.46V244.85z M120.44,273.62h26.46v26.46h-26.46V273.62z M120.44,302.38h26.46v26.46h-26.46V302.38z M120.44,357.6v-26.46
			h26.46v26.46H120.44z M149.2,357.6v-26.46h26.46v26.46H149.2z M177.96,357.6v-26.46h26.46v26.46H177.96z M206.72,357.6v-26.46
			h26.46v26.46H206.72z M235.49,357.6v-26.46h26.46v26.46H235.49z M264.25,357.6v-26.46h26.46v26.46H264.25z M293.01,357.6v-26.46
			h26.46v26.46H293.01z M321.77,357.6v-26.46h26.46v26.46H321.77z M350.53,357.6v-26.46h26.35v26.46H350.53z M405.54,357.6h-26.35
			v-26.46h26.35V357.6z M405.54,328.84h-26.35v-26.46h26.35V328.84z M405.54,300.07h-26.35v-26.46h26.35V300.07z M405.54,271.31
			h-26.35v-26.46h26.35V271.31z M405.54,242.55h-26.35v-26.46h26.35V242.55z M405.54,213.79h-26.35v-26.46h26.35V213.79z
			 M405.54,185.03h-26.35v-26.46h26.35V185.03z M405.54,156.26h-26.35V129.8h26.35V156.26z"/>
		<rect x="263.14" y="379.33" class="st3" width="196.86" height="13.43"/>
		<rect x="112.33" y="368.85" class="st4" width="44.55" height="10.48"/>
	</g>
	<g>
		<path class="st5" d="M40,263.97v21.01h115.77v-21.01H40z"/>
		<path class="st6" d="M40,262.26v10.51h115.77v-10.51H40z"/>
		<g>
			<path class="st5" d="M151.72,267.35h-1.71v-5.13h1.71V267.35z M143.17,267.35h-1.71v-5.13h1.71V267.35z M134.62,267.35h-1.71
				v-5.13h1.71V267.35z M126.07,267.35h-1.71v-5.13h1.71V267.35z M117.51,267.35h-1.71v-5.13h1.71V267.35z M108.96,267.35h-1.71
				v-5.13h1.71V267.35z M100.41,267.35H98.7v-5.13h1.71V267.35z M91.85,267.35h-1.71v-5.13h1.71V267.35z M83.3,267.35h-1.71v-5.13
				h1.71V267.35z M74.75,267.35h-1.71v-5.13h1.71V267.35z M66.2,267.35h-1.71v-5.13h1.71V267.35z M57.64,267.35h-1.71v-5.13h1.71
				V267.35z M49.09,267.35h-1.71v-5.13h1.71V267.35z"/>
		</g>
		<g>
			<path class="st5" d="M147.32,264.79h-1.71v-2.57h1.71V264.79z M138.76,264.79h-1.71v-2.57h1.71V264.79z M130.21,264.79h-1.71
				v-2.57h1.71V264.79z M121.66,264.79h-1.71v-2.57h1.71V264.79z M113.1,264.79h-1.71v-2.57h1.71V264.79z M104.55,264.79h-1.71
				v-2.57h1.71V264.79z M96,264.79h-1.71v-2.57H96V264.79z M87.45,264.79h-1.71v-2.57h1.71V264.79z M78.89,264.79h-1.71v-2.57h1.71
				V264.79z M70.34,264.79h-1.71v-2.57h1.71V264.79z M61.79,264.79h-1.71v-2.57h1.71V264.79z M53.23,264.79h-1.71v-2.57h1.71V264.79
				z"/>
		</g>
	</g>
	<g>
		<g>
			<g>
				<g>
					
						<rect x="154.24" y="379.89" transform="matrix(0.4232 -0.906 0.906 0.4232 -239.5509 393.175)" class="st7" width="69.6" height="9.7"/>
				</g>
				<g>
					<polygon class="st2" points="167.09,431.72 171.37,414.89 177.08,417.56 					"/>
				</g>
			</g>
			<g>
				<g>
					
						<rect x="222.44" y="349.94" transform="matrix(0.906 -0.4232 0.4232 0.906 -141.4785 132.3593)" class="st7" width="9.7" height="69.6"/>
				</g>
				<g>
					<polygon class="st2" points="249.24,431.72 244.96,414.89 239.25,417.56 					"/>
				</g>
			</g>
		</g>
		<g>
			<rect x="206.55" y="324.05" class="st2" width="3.44" height="25.97"/>
		</g>
		<g>
			<path class="st5" d="M221.24,355.26c0,7.22-5.85,13.08-13.08,13.08c-7.22,0-13.08-5.85-13.08-13.08
				c0-7.22,5.85-13.08,13.08-13.08C215.39,342.19,221.24,348.04,221.24,355.26z"/>
		</g>
		<g>
			<circle class="st6" cx="208.16" cy="355.26" r="5.25"/>
		</g>
		<g>
			<path class="st4" d="M208.16,385.59c-10.7,0-20.4-5.47-25.95-14.64l3.51-2.13c4.8,7.93,13.19,12.66,22.44,12.66
				c8.72,0,16.85-4.32,21.74-11.56l3.4,2.3C227.65,380.59,218.25,385.59,208.16,385.59z"/>
		</g>
		<g>
			<path class="st7" d="M213.41,321.71c0-0.01,0-0.02,0-0.03v-0.16h-0.02c-0.1-2.81-2.4-5.06-5.23-5.06c-2.83,0-5.13,2.25-5.23,5.06
				h-0.02v0.16c0,0.01,0,0.02,0,0.03c0,0.01,0,0.02,0,0.03v15.29h10.49v-15.29C213.41,321.73,213.41,321.72,213.41,321.71z"/>
		</g>
	</g>
	<g>
		<path class="st8" d="M343.66,154.63c0,2.88-2.34,5.22-5.22,5.22h-57.04c-2.88,0-5.22-2.34-5.22-5.22V76.97
			c0-2.88,2.34-5.22,5.22-5.22h57.04c2.88,0,5.22,2.34,5.22,5.22V154.63z"/>
		<path class="st4" d="M343.66,151.15c0,2.88-2.34,5.22-5.22,5.22h-57.04c-2.88,0-5.22-2.34-5.22-5.22V73.49
			c0-2.88,2.34-5.22,5.22-5.22h57.04c2.88,0,5.22,2.34,5.22,5.22V151.15z"/>
		<path class="st8" d="M338.45,68.28h-28.52v88.09h28.52c2.88,0,5.22-2.34,5.22-5.22V73.49C343.66,70.61,341.33,68.28,338.45,68.28z
			"/>
		<rect x="283.18" y="74.84" class="st2" width="53.5" height="15.27"/>
		<rect x="309.93" y="74.84" class="st3" width="26.75" height="15.27"/>
		<path class="st7" d="M283.18,107.34h10.59V96.46h-10.59V107.34z M297.48,107.34h10.59V96.46h-10.59V107.34z M311.78,107.34h10.59
			V96.46h-10.59V107.34z M326.08,96.46v10.88h10.59V96.46H326.08z M297.48,122.08h10.59V111.2h-10.59V122.08z M311.78,122.08h10.59
			V111.2h-10.59V122.08z M326.08,122.08h10.59V111.2h-10.59V122.08z M283.18,136.82h10.59v-10.88h-10.59V136.82z M297.48,136.82
			h10.59v-10.88h-10.59V136.82z M311.78,136.82h10.59v-10.88h-10.59V136.82z M326.08,136.82h10.59v-10.88h-10.59V136.82z
			 M283.18,122.08h10.59V111.2h-10.59V122.08z M283.18,151.56h10.59v-10.88h-10.59V151.56z M297.48,151.56h10.59v-10.88h-10.59
			V151.56z M311.78,151.56h10.59v-10.88h-10.59V151.56z M326.08,151.56h10.59v-10.88h-10.59V151.56z"/>
		<path class="st9" d="M311.78,107.34h10.59V96.46h-10.59V107.34z M326.08,96.46v10.88h10.59V96.46H326.08z M311.78,122.08h10.59
			V111.2h-10.59V122.08z M326.08,122.08h10.59V111.2h-10.59V122.08z M311.78,136.82h10.59v-10.88h-10.59V136.82z M326.08,136.82
			h10.59v-10.88h-10.59V136.82z M311.78,151.56h10.59v-10.88h-10.59V151.56z M326.08,151.56h10.59v-10.88h-10.59V151.56z"/>
	</g>
	<g>
		<rect x="343.66" y="281.42" class="st7" width="14.81" height="97.92"/>
		<rect x="435.49" y="281.42" class="st9" width="14.8" height="97.92"/>
		<path class="st4" d="M358.47,293.4v4.96h77.02v-4.96H358.47z M358.47,315.61h77.02v-4.96h-77.02V315.61z M358.47,332.86h77.02
			v-4.96h-77.02V332.86z M358.47,350.1h77.02v-4.96h-77.02V350.1z M358.47,367.34h77.02v-4.96h-77.02V367.34z"/>
		<path class="st8" d="M358.47,293.4v4.96h7.45v-4.96H358.47z M358.47,315.61h7.45v-4.96h-7.45V315.61z M358.47,332.86h7.45v-4.96
			h-7.45V332.86z M358.47,350.1h7.45v-4.96h-7.45V350.1z M358.47,367.34h7.45v-4.96h-7.45V367.34z"/>
		<g>
			<path class="st2" d="M435.49,295.52c0,4.09-3.31,7.4-7.4,7.4c-4.09,0-7.4-3.31-7.4-7.4c0-4.09,3.31-7.4,7.4-7.4
				C432.18,288.12,435.49,291.43,435.49,295.52z"/>
			<path class="st3" d="M428.09,288.12v14.8c4.09,0,7.4-3.31,7.4-7.4C435.49,291.43,432.18,288.12,428.09,288.12z"/>
		</g>
		<g>
			<path class="st2" d="M420.69,295.52c0,4.09-3.31,7.4-7.4,7.4c-4.09,0-7.4-3.31-7.4-7.4c0-4.09,3.31-7.4,7.4-7.4
				C417.37,288.12,420.69,291.43,420.69,295.52z"/>
			<path class="st3" d="M413.28,288.12v14.8c4.09,0,7.4-3.31,7.4-7.4C420.69,291.43,417.37,288.12,413.28,288.12z"/>
		</g>
		<g>
			<path class="st2" d="M405.88,295.52c0,4.09-3.31,7.4-7.4,7.4s-7.4-3.31-7.4-7.4c0-4.09,3.31-7.4,7.4-7.4
				S405.88,291.43,405.88,295.52z"/>
			<path class="st3" d="M398.48,288.12v14.8c4.09,0,7.4-3.31,7.4-7.4C405.88,291.43,402.57,288.12,398.48,288.12z"/>
		</g>
		<g>
			<path class="st2" d="M435.49,312.82c0,4.09-3.31,7.4-7.4,7.4c-4.09,0-7.4-3.31-7.4-7.4c0-4.09,3.31-7.4,7.4-7.4
				C432.18,305.42,435.49,308.73,435.49,312.82z"/>
			<path class="st3" d="M428.09,305.42v14.8c4.09,0,7.4-3.31,7.4-7.4C435.49,308.73,432.18,305.42,428.09,305.42z"/>
		</g>
		<g>
			<path class="st2" d="M420.69,312.82c0,4.09-3.31,7.4-7.4,7.4c-4.09,0-7.4-3.31-7.4-7.4c0-4.09,3.31-7.4,7.4-7.4
				C417.37,305.42,420.69,308.73,420.69,312.82z"/>
			<path class="st3" d="M413.28,305.42v14.8c4.09,0,7.4-3.31,7.4-7.4C420.69,308.73,417.37,305.42,413.28,305.42z"/>
		</g>
		<g>
			<path class="st2" d="M405.88,312.82c0,4.09-3.31,7.4-7.4,7.4s-7.4-3.31-7.4-7.4c0-4.09,3.31-7.4,7.4-7.4
				S405.88,308.73,405.88,312.82z"/>
			<path class="st3" d="M398.48,305.42v14.8c4.09,0,7.4-3.31,7.4-7.4C405.88,308.73,402.57,305.42,398.48,305.42z"/>
		</g>
		<g>
			<path class="st2" d="M435.49,330.37c0,4.09-3.31,7.4-7.4,7.4c-4.09,0-7.4-3.31-7.4-7.4s3.31-7.4,7.4-7.4
				C432.18,322.97,435.49,326.29,435.49,330.37z"/>
			<path class="st3" d="M428.09,322.97v14.8c4.09,0,7.4-3.31,7.4-7.4C435.49,326.29,432.18,322.97,428.09,322.97z"/>
		</g>
		<g>
			<path class="st2" d="M420.69,330.37c0,4.09-3.31,7.4-7.4,7.4c-4.09,0-7.4-3.31-7.4-7.4s3.31-7.4,7.4-7.4
				C417.37,322.97,420.69,326.29,420.69,330.37z"/>
			<path class="st3" d="M413.28,322.97v14.8c4.09,0,7.4-3.31,7.4-7.4C420.69,326.29,417.37,322.97,413.28,322.97z"/>
		</g>
		<g>
			<circle class="st2" cx="383.67" cy="330.37" r="7.4"/>
			<path class="st3" d="M383.67,322.97v14.8c4.09,0,7.4-3.31,7.4-7.4C391.08,326.29,387.76,322.97,383.67,322.97z"/>
		</g>
		<g>
			<path class="st5" d="M391.08,348.03c0,4.09-3.31,7.4-7.4,7.4s-7.4-3.31-7.4-7.4c0-4.09,3.31-7.4,7.4-7.4
				S391.08,343.94,391.08,348.03z"/>
			<path class="st10" d="M383.67,340.63v14.81c4.09,0,7.4-3.31,7.4-7.4S387.76,340.63,383.67,340.63z"/>
		</g>
		<g>
			<path class="st5" d="M405.88,348.03c0,4.09-3.31,7.4-7.4,7.4c-4.09,0-7.4-3.31-7.4-7.4c0-4.09,3.31-7.4,7.4-7.4
				C402.57,340.63,405.88,343.94,405.88,348.03z"/>
			<path class="st10" d="M398.48,340.63v14.81c4.09,0,7.4-3.31,7.4-7.4S402.57,340.63,398.48,340.63z"/>
		</g>
		<g>
			<path class="st5" d="M420.69,364.29c0,4.09-3.31,7.4-7.4,7.4c-4.09,0-7.4-3.31-7.4-7.4c0-4.09,3.31-7.4,7.4-7.4
				C417.37,356.89,420.69,360.2,420.69,364.29z"/>
			<path class="st10" d="M413.28,356.89v14.8c4.09,0,7.4-3.31,7.4-7.4C420.69,360.2,417.37,356.89,413.28,356.89z"/>
		</g>
		<g>
			<path class="st5" d="M435.49,364.29c0,4.09-3.31,7.4-7.4,7.4c-4.09,0-7.4-3.31-7.4-7.4c0-4.09,3.31-7.4,7.4-7.4
				C432.18,356.89,435.49,360.2,435.49,364.29z"/>
			<path class="st10" d="M428.09,356.89v14.8c4.09,0,7.4-3.31,7.4-7.4C435.49,360.2,432.18,356.89,428.09,356.89z"/>
		</g>
		<g>
			<path class="st2" d="M391.08,295.52c0,4.09-3.31,7.4-7.4,7.4c-4.09,0-7.4-3.31-7.4-7.4c0-4.09,3.31-7.4,7.4-7.4
				C387.76,288.12,391.08,291.43,391.08,295.52z"/>
			<path class="st3" d="M383.67,288.12v14.8c4.09,0,7.4-3.31,7.4-7.4C391.08,291.43,387.76,288.12,383.67,288.12z"/>
		</g>
	</g>
	<g>
		<path class="st5" d="M375.4,139.77v124.09h83.17L375.4,139.77z M394.27,245v-43.18L423.21,245H394.27z"/>
		<path class="st10" d="M407.37,187.54l-5.21,3.49l1.16,1.74l5.21-3.49L407.37,187.54z M430.65,222.29l-5.21,3.49l1.16,1.74
			l5.21-3.49L430.65,222.29z M424.83,213.6l-5.21,3.49l1.16,1.74l5.21-3.49L424.83,213.6z M413.19,196.23l-5.21,3.49l1.16,1.74
			l5.21-3.49L413.19,196.23z M419.01,204.92l-5.21,3.49l1.16,1.74l5.21-3.49L419.01,204.92z M401.55,178.85l-5.21,3.49l1.16,1.74
			l5.21-3.49L401.55,178.85z M395.73,170.16l-5.21,3.49l1.16,1.74l5.21-3.49L395.73,170.16z M436.47,230.98l-5.21,3.49l1.16,1.74
			l5.21-3.49L436.47,230.98z M455.1,258.79l-1.16-1.74l-5.21,3.49l1.16,1.74L455.1,258.79z M448.12,248.36l-5.21,3.49l1.16,1.74
			l5.21-3.49L448.12,248.36z M384.08,152.78l-5.21,3.49l1.16,1.74l5.21-3.49L384.08,152.78z M389.9,161.47l-5.21,3.49l1.16,1.74
			l5.21-3.49L389.9,161.47z M442.3,239.67l-5.21,3.49l1.16,1.74l5.21-3.49L442.3,239.67z M404.37,183.06l-2.61,1.75l1.16,1.74
			l2.61-1.75L404.37,183.06z M386.9,156.99l-2.61,1.75l1.16,1.74l2.61-1.75L386.9,156.99z M398.55,174.37l-2.61,1.75l1.16,1.74
			l2.61-1.75L398.55,174.37z M392.73,165.68l-2.61,1.75l1.16,1.74l2.61-1.75L392.73,165.68z M439.29,235.19l-2.61,1.75l1.16,1.74
			l2.61-1.75L439.29,235.19z M433.47,226.5l-2.61,1.75l1.16,1.74l2.61-1.75L433.47,226.5z M445.12,243.88l-2.61,1.75l1.16,1.74
			l2.61-1.75L445.12,243.88z M450.94,252.57l-2.61,1.75l1.16,1.74l2.61-1.75L450.94,252.57z M410.19,191.75l-2.61,1.75l1.16,1.74
			l2.61-1.75L410.19,191.75z M427.65,217.82l-2.61,1.75l1.16,1.74l2.61-1.75L427.65,217.82z M416.01,200.44l-2.61,1.75l1.16,1.74
			l2.61-1.75L416.01,200.44z M421.83,209.13l-2.61,1.75l1.16,1.74l2.61-1.75L421.83,209.13z"/>
	</g>
	<g class="st11">
		<path class="st12" d="M254.92,239.66h-12.8v-2.3l4.87-4.89c1.44-1.47,2.39-2.52,2.86-3.13s0.81-1.19,1.03-1.74
			c0.22-0.54,0.32-1.12,0.32-1.74c0-0.85-0.26-1.52-0.77-2.01c-0.51-0.49-1.22-0.74-2.12-0.74c-0.72,0-1.42,0.13-2.1,0.4
			c-0.68,0.27-1.46,0.75-2.34,1.45l-1.64-2c1.05-0.89,2.07-1.52,3.06-1.89c0.99-0.37,2.04-0.56,3.16-0.56
			c1.76,0,3.16,0.46,4.22,1.38c1.06,0.92,1.59,2.15,1.59,3.7c0,0.85-0.15,1.66-0.46,2.43c-0.31,0.77-0.77,1.56-1.41,2.37
			c-0.63,0.81-1.69,1.91-3.16,3.3l-3.28,3.18v0.13h8.96V239.66z"/>
		<path class="st12" d="M275.66,231.48h-5.14v-2.3h5.14v-5.27h2.32v5.27h5.15v2.3h-5.15v5.24h-2.32V231.48z"/>
		<path class="st12" d="M311.56,239.66h-12.8v-2.3l4.87-4.89c1.44-1.47,2.39-2.52,2.86-3.13s0.81-1.19,1.03-1.74
			c0.22-0.54,0.32-1.12,0.32-1.74c0-0.85-0.26-1.52-0.77-2.01c-0.51-0.49-1.22-0.74-2.12-0.74c-0.72,0-1.42,0.13-2.1,0.4
			c-0.68,0.27-1.46,0.75-2.34,1.45l-1.64-2c1.05-0.89,2.07-1.52,3.06-1.89c0.99-0.37,2.04-0.56,3.16-0.56
			c1.76,0,3.16,0.46,4.22,1.38c1.06,0.92,1.59,2.15,1.59,3.7c0,0.85-0.15,1.66-0.46,2.43c-0.31,0.77-0.77,1.56-1.41,2.37
			c-0.63,0.81-1.69,1.91-3.16,3.3l-3.28,3.18v0.13h8.96V239.66z"/>
		<path class="st12" d="M327.24,228.93v-2.31h12.44v2.31H327.24z M327.24,234.08v-2.3h12.44v2.3H327.24z"/>
		<path class="st12" d="M368.88,235.54h-2.54v4.12h-2.96v-4.12h-8.63v-2.34l8.63-12.48h2.96v12.29h2.54V235.54z M363.38,233.02
			v-4.74c0-1.69,0.04-3.07,0.13-4.15h-0.1c-0.24,0.57-0.62,1.26-1.14,2.07l-4.69,6.82H363.38z"/>
	</g>
	<g class="st11">
		<path class="st12" d="M164.45,312.92c1.9,0,3.41,0.5,4.52,1.51c1.11,1.01,1.67,2.38,1.67,4.12c0,2.01-0.63,3.59-1.89,4.72
			c-1.26,1.13-3.05,1.7-5.38,1.7c-2.11,0-3.77-0.34-4.97-1.02v-2.75c0.7,0.4,1.5,0.7,2.4,0.92c0.9,0.22,1.74,0.32,2.52,0.32
			c1.37,0,2.41-0.31,3.13-0.92c0.71-0.61,1.07-1.51,1.07-2.69c0-2.26-1.44-3.38-4.31-3.38c-0.4,0-0.9,0.04-1.5,0.12
			c-0.59,0.08-1.12,0.17-1.56,0.28l-1.36-0.8l0.72-9.22h9.82v2.7h-7.14l-0.43,4.68c0.3-0.05,0.67-0.11,1.1-0.18
			C163.29,312.95,163.82,312.92,164.45,312.92z"/>
		<path class="st12" d="M190.55,317.41l-4.79-6.99h3.46l3.25,5l3.28-5h3.44l-4.8,6.99l5.05,7.3H196l-3.53-5.35l-3.51,5.35h-3.44
			L190.55,317.41z"/>
		<path class="st12" d="M220.57,312.92c1.9,0,3.41,0.5,4.52,1.51c1.11,1.01,1.67,2.38,1.67,4.12c0,2.01-0.63,3.59-1.89,4.72
			c-1.26,1.13-3.05,1.7-5.38,1.7c-2.11,0-3.77-0.34-4.97-1.02v-2.75c0.7,0.4,1.5,0.7,2.4,0.92c0.9,0.22,1.74,0.32,2.52,0.32
			c1.37,0,2.41-0.31,3.13-0.92c0.71-0.61,1.07-1.51,1.07-2.69c0-2.26-1.44-3.38-4.31-3.38c-0.4,0-0.9,0.04-1.5,0.12
			c-0.59,0.08-1.12,0.17-1.56,0.28l-1.36-0.8l0.72-9.22h9.82v2.7h-7.14l-0.43,4.68c0.3-0.05,0.67-0.11,1.1-0.18
			C219.41,312.95,219.94,312.92,220.57,312.92z"/>
		<path class="st12" d="M242.64,313.97v-2.31h12.44v2.31H242.64z M242.64,319.13v-2.3h12.44v2.3H242.64z"/>
		<path class="st12" d="M283.6,324.71h-12.8v-2.3l4.87-4.89c1.44-1.47,2.39-2.52,2.86-3.13c0.47-0.62,0.81-1.19,1.03-1.74
			c0.22-0.54,0.32-1.12,0.32-1.74c0-0.85-0.26-1.52-0.77-2.01c-0.51-0.49-1.22-0.74-2.12-0.74c-0.72,0-1.42,0.13-2.1,0.4
			c-0.68,0.27-1.46,0.75-2.34,1.45l-1.64-2c1.05-0.89,2.07-1.52,3.06-1.89c0.99-0.37,2.04-0.56,3.16-0.56
			c1.76,0,3.16,0.46,4.22,1.38c1.06,0.92,1.59,2.15,1.59,3.7c0,0.85-0.15,1.66-0.46,2.43c-0.31,0.77-0.77,1.56-1.41,2.37
			c-0.63,0.81-1.69,1.91-3.16,3.3l-3.28,3.18v0.13h8.96V324.71z"/>
		<path class="st12" d="M305.53,312.92c1.9,0,3.41,0.5,4.52,1.51c1.11,1.01,1.67,2.38,1.67,4.12c0,2.01-0.63,3.59-1.89,4.72
			c-1.26,1.13-3.05,1.7-5.38,1.7c-2.11,0-3.77-0.34-4.97-1.02v-2.75c0.7,0.4,1.5,0.7,2.4,0.92c0.9,0.22,1.74,0.32,2.52,0.32
			c1.37,0,2.41-0.31,3.13-0.92c0.71-0.61,1.07-1.51,1.07-2.69c0-2.26-1.44-3.38-4.31-3.38c-0.4,0-0.9,0.04-1.5,0.12
			c-0.59,0.08-1.11,0.17-1.56,0.28l-1.36-0.8l0.72-9.22h9.82v2.7h-7.14l-0.43,4.68c0.3-0.05,0.67-0.11,1.1-0.18
			C304.37,312.95,304.91,312.92,305.53,312.92z"/>
	</g>
	<g class="st11">
		<path class="st12" d="M162.23,173.82l-4.79-6.99h3.46l3.25,5l3.28-5h3.44l-4.8,6.99l5.05,7.3h-3.44l-3.53-5.35l-3.51,5.35h-3.44
			L162.23,173.82z"/>
		<path class="st12" d="M191.06,172.94h-5.14v-2.3h5.14v-5.27h2.32v5.27h5.15v2.3h-5.15v5.24h-2.32V172.94z"/>
		<path class="st12" d="M226.96,181.12h-12.8v-2.3l4.87-4.89c1.44-1.47,2.39-2.52,2.86-3.13c0.47-0.62,0.81-1.19,1.03-1.74
			c0.22-0.54,0.32-1.12,0.32-1.74c0-0.85-0.26-1.52-0.77-2.01c-0.51-0.49-1.22-0.74-2.12-0.74c-0.72,0-1.42,0.13-2.1,0.4
			c-0.68,0.27-1.46,0.75-2.34,1.45l-1.64-2c1.05-0.89,2.07-1.52,3.06-1.89c0.99-0.37,2.04-0.56,3.16-0.56
			c1.76,0,3.16,0.46,4.22,1.38c1.06,0.92,1.59,2.15,1.59,3.7c0,0.85-0.15,1.66-0.46,2.43c-0.31,0.77-0.77,1.56-1.41,2.37
			c-0.63,0.81-1.69,1.91-3.16,3.3l-3.28,3.18v0.13h8.96V181.12z"/>
		<path class="st12" d="M248.89,169.33c1.9,0,3.41,0.5,4.52,1.51c1.11,1.01,1.67,2.38,1.67,4.12c0,2.01-0.63,3.59-1.89,4.72
			c-1.26,1.13-3.05,1.7-5.38,1.7c-2.11,0-3.77-0.34-4.97-1.02v-2.75c0.7,0.4,1.5,0.7,2.4,0.92c0.9,0.22,1.74,0.32,2.52,0.32
			c1.37,0,2.41-0.31,3.13-0.92c0.71-0.61,1.07-1.51,1.07-2.69c0-2.26-1.44-3.38-4.31-3.38c-0.4,0-0.9,0.04-1.5,0.12
			c-0.59,0.08-1.11,0.17-1.56,0.28l-1.36-0.8l0.72-9.22h9.82v2.7h-7.14l-0.43,4.68c0.3-0.05,0.67-0.11,1.1-0.18
			C247.73,169.36,248.26,169.33,248.89,169.33z"/>
		<path class="st12" d="M270.96,170.38v-2.31h12.44v2.31H270.96z M270.96,175.54v-2.3h12.44v2.3H270.96z"/>
		<path class="st12" d="M297.97,166.83h3.31l2.91,8.1c0.44,1.15,0.73,2.24,0.88,3.25h0.1c0.08-0.47,0.22-1.05,0.43-1.72
			c0.21-0.68,1.3-3.89,3.28-9.63h3.28l-6.11,16.18c-1.11,2.97-2.96,4.46-5.55,4.46c-0.67,0-1.33-0.07-1.96-0.22v-2.4
			c0.46,0.1,0.98,0.16,1.56,0.16c1.46,0,2.49-0.85,3.09-2.54l0.53-1.34L297.97,166.83z"/>
	</g>
	<g>
		<path class="st2" d="M170.08,212.4c0-25.27-20.48-45.75-45.75-45.75s-45.75,20.48-45.75,45.75H65.53v23.36h117.61V212.4H170.08z
			 M100,212.4c0-13.42,10.91-24.33,24.33-24.33c13.42,0,24.33,10.91,24.33,24.33H100z"/>
		<path class="st3" d="M157.07,183.21l-3.71,3.32c0.52,0.58,1.02,1.18,1.51,1.8l3.9-3.09C158.22,184.55,157.66,183.87,157.07,183.21
			z M149.14,176.23l-2.82,4.1c0.65,0.45,1.28,0.91,1.9,1.39l3.05-3.93C150.58,177.25,149.87,176.73,149.14,176.23z M153.32,179.49
			l-3.29,3.73c0.59,0.52,1.16,1.06,1.72,1.61l3.5-3.53C154.62,180.67,153.98,180.07,153.32,179.49z M128.9,173.79
			c0.78,0.09,1.55,0.21,2.32,0.34l0.88-4.9c-0.87-0.15-1.74-0.29-2.62-0.39L128.9,173.79z M138,175.99c0.73,0.28,1.46,0.58,2.18,0.9
			l2.03-4.54c-0.81-0.36-1.62-0.7-2.45-1.01L138,175.99z M144.6,173.5l-2.31,4.41c0.7,0.37,1.38,0.75,2.05,1.15l2.56-4.27
			C146.15,174.34,145.38,173.91,144.6,173.5z M133.52,174.61c0.76,0.18,1.51,0.39,2.25,0.62l1.49-4.75c-0.85-0.26-1.7-0.5-2.57-0.71
			L133.52,174.61z M166.88,201.74l-4.83,1.21c0.19,0.76,0.36,1.52,0.5,2.3l4.89-0.92C167.29,203.46,167.1,202.6,166.88,201.74z
			 M167.86,206.95l-4.94,0.61c0.09,0.77,0.17,1.55,0.22,2.34l4.97-0.31C168.05,208.7,167.96,207.82,167.86,206.95z M163.1,191.88
			l-4.39,2.34c0.36,0.69,0.71,1.38,1.03,2.09l4.54-2.04C163.91,193.45,163.52,192.66,163.1,191.88z M160.35,187.37l-4.08,2.84
			c0.45,0.64,0.88,1.3,1.28,1.97l4.25-2.59C161.33,188.83,160.85,188.09,160.35,187.37z M165.29,196.69l-4.64,1.79
			c0.28,0.73,0.54,1.46,0.77,2.21l4.75-1.5C165.9,198.35,165.61,197.51,165.29,196.69z M95.17,179.64l3.31,3.71
			c0.58-0.52,1.18-1.02,1.79-1.51l-3.08-3.91C96.51,178.48,95.83,179.05,95.17,179.64z M83.28,196.94l4.66,1.76
			c0.28-0.73,0.58-1.46,0.9-2.18l-4.54-2.03C83.93,195.29,83.6,196.11,83.28,196.94z M85.45,192.1l4.41,2.31
			c0.36-0.7,0.75-1.38,1.15-2.05l-4.27-2.56C86.29,190.55,85.86,191.31,85.45,192.1z M88.18,187.56l4.1,2.82
			c0.45-0.65,0.91-1.28,1.39-1.9l-3.93-3.06C89.21,186.12,88.69,186.84,88.18,187.56z M81.72,202l4.84,1.18
			c0.19-0.77,0.39-1.52,0.62-2.26l-4.76-1.47C82.16,200.29,81.93,201.14,81.72,202z M80.78,207.21l4.94,0.58
			c0.09-0.78,0.21-1.56,0.35-2.32l-4.9-0.88C81.01,205.46,80.88,206.33,80.78,207.21z M80.48,212.28l0,0.13h4.97
			c0-0.76,0.02-1.52,0.07-2.27l-4.97-0.29C80.5,210.69,80.48,211.55,80.48,212.28z M108.67,171.43l1.77,4.65
			c0.73-0.28,1.47-0.54,2.22-0.77l-1.5-4.75C110.32,170.82,109.49,171.11,108.67,171.43z M113.71,169.84l1.21,4.83
			c0.76-0.19,1.52-0.36,2.29-0.5l-0.9-4.89C115.43,169.44,114.57,169.63,113.71,169.84z M124.21,168.55l0.13,4.98
			c0.75,0,1.49,0.02,2.23,0.06l0.28-4.97c-0.83-0.05-1.67-0.07-2.51-0.07H124.21z M118.92,168.88l0.61,4.94
			c0.77-0.09,1.55-0.16,2.34-0.21l-0.31-4.97C120.67,168.69,119.79,168.77,118.92,168.88z M99.34,176.36l2.84,4.09
			c0.64-0.45,1.3-0.88,1.97-1.28l-2.6-4.25C100.8,175.38,100.06,175.86,99.34,176.36z M103.85,173.61l2.32,4.4
			c0.69-0.37,1.39-0.71,2.11-1.04l-2.06-4.53C105.42,172.82,104.63,173.21,103.85,173.61z M91.44,183.39l3.73,3.29
			c0.52-0.59,1.06-1.16,1.61-1.72l-3.54-3.5C92.63,182.09,92.03,182.73,91.44,183.39z"/>
		<rect x="65.53" y="229.63" class="st3" width="117.61" height="6.13"/>
	</g>
</g>
</svg>
