<?xml version="1.0" encoding="utf-8"?>
<!-- Generator: Adobe Illustrator 25.0.0, SVG Export Plug-In . SVG Version: 6.00 Build 0)  -->
<svg version="1.1" id="Слой_1" xmlns="http://www.w3.org/2000/svg" xmlns:xlink="http://www.w3.org/1999/xlink" x="0px" y="0px"
	 viewBox="0 0 500 500" style="enable-background:new 0 0 500 500;" xml:space="preserve">
<style type="text/css">
	.st0{fill:#109D59;}
	.st1{fill:#34B67A;}
	.st2{fill:#3F5CA8;}
	.st3{fill:#43459C;}
	.st4{fill:#FFFFFF;}
	.st5{fill:#F5815A;}
	.st6{fill:#F15723;}
	.st7{fill:#DAE56B;}
	.st8{fill:#F2F2F2;}
	.st9{fill:#CDDC39;}
	.st10{fill:#FB5D00;}
	.st11{opacity:0.5;}
	.st12{fill:#FCF6A8;}
</style>
<g>
	<g>
		<rect x="55.57" y="71.41" class="st0" width="420.16" height="332.56"/>
		<rect x="68.91" y="82.26" class="st1" width="393.1" height="321.71"/>
		<rect x="31.3" y="403.97" class="st2" width="468.7" height="15.98"/>
		<path class="st0" d="M462.01,106.91v-2.74h-24.1V82.26h-2.74v21.91H403.8V82.26h-2.74v21.91h-31.37V82.26h-2.74v21.91h-31.5V82.26
			h-2.74v21.91h-31.5V82.26h-2.74v21.91h-31.5V82.26h-2.74v21.91h-31.5V82.26h-2.74v21.91h-31.5V82.26h-2.74v21.91h-31.5V82.26
			h-2.74v21.91H130V82.26h-2.74v21.91h-31.5V82.26h-2.74v21.91h-24.1v2.74h24.1v31.5h-24.1v2.74h24.1v31.5h-24.1v2.74h24.1v31.5
			h-24.1v2.74h24.1v31.5h-24.1v2.74h24.1v31.5h-24.1v2.74h24.1v31.5h-24.1v2.74h24.1v31.5h-24.1v2.74h24.1v31.5h-24.1v2.74h24.1
			v23.13h2.74v-23.13h31.5v23.13H130v-23.13h31.5v23.13h2.74v-23.13h31.5v23.13h2.74v-23.13h31.5v23.13h2.74v-23.13h31.5v23.13h2.74
			v-23.13h31.5v23.13h2.74v-23.13h31.5v23.13h2.74v-23.13h31.5v23.13h2.74v-23.13h31.37v23.13h2.74v-23.13h31.37v23.13h2.74v-23.13
			h24.1v-2.74h-24.1v-31.5h24.1v-2.74h-24.1v-31.5h24.1v-2.74h-24.1v-31.5h24.1v-2.74h-24.1v-31.5h24.1v-2.74h-24.1v-31.5h24.1
			v-2.74h-24.1v-31.5h24.1v-2.74h-24.1v-31.5h24.1v-2.74h-24.1v-31.5H462.01z M401.05,106.91v31.5h-31.37v-31.5H401.05z
			 M264.22,241.13h-31.5v-31.5h31.5V241.13z M266.96,209.63h31.5v31.5h-31.5V209.63z M229.98,241.13h-31.5v-31.5h31.5V241.13z
			 M229.98,243.87v31.5h-31.5v-31.5H229.98z M232.72,243.87h31.5v31.5h-31.5V243.87z M266.96,243.87h31.5v31.5h-31.5V243.87z
			 M301.2,243.87h31.5v31.5h-31.5V243.87z M301.2,241.13v-31.5h31.5v31.5H301.2z M301.2,206.89v-31.5h31.5v31.5H301.2z
			 M298.46,206.89h-31.5v-31.5h31.5V206.89z M264.22,206.89h-31.5v-31.5h31.5V206.89z M229.98,206.89h-31.5v-31.5h31.5V206.89z
			 M195.74,206.89h-31.5v-31.5h31.5V206.89z M195.74,209.63v31.5h-31.5v-31.5H195.74z M195.74,243.87v31.5h-31.5v-31.5H195.74z
			 M195.74,278.11v31.5h-31.5v-31.5H195.74z M198.48,278.11h31.5v31.5h-31.5V278.11z M232.72,278.11h31.5v31.5h-31.5V278.11z
			 M266.96,278.11h31.5v31.5h-31.5V278.11z M301.2,278.11h31.5v31.5h-31.5V278.11z M335.44,278.11h31.5v31.5h-31.5V278.11z
			 M335.44,275.37v-31.5h31.5v31.5H335.44z M335.44,241.13v-31.5h31.5v31.5H335.44z M335.44,206.89v-31.5h31.5v31.5H335.44z
			 M335.44,172.65v-31.5h31.5v31.5H335.44z M332.7,172.65h-31.5v-31.5h31.5V172.65z M298.46,172.65h-31.5v-31.5h31.5V172.65z
			 M264.22,172.65h-31.5v-31.5h31.5V172.65z M229.98,172.65h-31.5v-31.5h31.5V172.65z M195.74,172.65h-31.5v-31.5h31.5V172.65z
			 M161.5,172.65H130v-31.5h31.5V172.65z M161.5,175.39v31.5H130v-31.5H161.5z M161.5,209.63v31.5H130v-31.5H161.5z M161.5,243.87
			v31.5H130v-31.5H161.5z M161.5,278.11v31.5H130v-31.5H161.5z M161.5,312.35v31.5H130v-31.5H161.5z M164.24,312.35h31.5v31.5h-31.5
			V312.35z M198.48,312.35h31.5v31.5h-31.5V312.35z M232.72,312.35h31.5v31.5h-31.5V312.35z M266.96,312.35h31.5v31.5h-31.5V312.35z
			 M301.2,312.35h31.5v31.5h-31.5V312.35z M335.44,312.35h31.5v31.5h-31.5V312.35z M369.68,312.35h31.37v31.5h-31.37V312.35z
			 M369.68,309.61v-31.5h31.37v31.5H369.68z M369.68,275.37v-31.5h31.37v31.5H369.68z M369.68,241.13v-31.5h31.37v31.5H369.68z
			 M369.68,206.89v-31.5h31.37v31.5H369.68z M369.68,172.65v-31.5h31.37v31.5H369.68z M366.94,106.91v31.5h-31.5v-31.5H366.94z
			 M332.7,106.91v31.5h-31.5v-31.5H332.7z M298.46,106.91v31.5h-31.5v-31.5H298.46z M264.22,106.91v31.5h-31.5v-31.5H264.22z
			 M229.98,106.91v31.5h-31.5v-31.5H229.98z M195.74,106.91v31.5h-31.5v-31.5H195.74z M161.5,106.91v31.5H130v-31.5H161.5z
			 M95.76,106.91h31.5v31.5h-31.5V106.91z M95.76,141.15h31.5v31.5h-31.5V141.15z M95.76,175.39h31.5v31.5h-31.5V175.39z
			 M95.76,209.63h31.5v31.5h-31.5V209.63z M95.76,243.87h31.5v31.5h-31.5V243.87z M95.76,278.11h31.5v31.5h-31.5V278.11z
			 M95.76,312.35h31.5v31.5h-31.5V312.35z M95.76,378.09v-31.5h31.5v31.5H95.76z M130,378.09v-31.5h31.5v31.5H130z M164.24,378.09
			v-31.5h31.5v31.5H164.24z M198.48,378.09v-31.5h31.5v31.5H198.48z M232.72,378.09v-31.5h31.5v31.5H232.72z M266.96,378.09v-31.5
			h31.5v31.5H266.96z M301.2,378.09v-31.5h31.5v31.5H301.2z M335.44,378.09v-31.5h31.5v31.5H335.44z M369.68,378.09v-31.5h31.37
			v31.5H369.68z M435.17,378.09H403.8v-31.5h31.37V378.09z M435.17,343.85H403.8v-31.5h31.37V343.85z M435.17,309.61H403.8v-31.5
			h31.37V309.61z M435.17,275.37H403.8v-31.5h31.37V275.37z M435.17,241.13H403.8v-31.5h31.37V241.13z M435.17,206.89H403.8v-31.5
			h31.37V206.89z M435.17,172.65H403.8v-31.5h31.37V172.65z M435.17,138.41H403.8v-31.5h31.37V138.41z"/>
		<rect x="265.65" y="403.97" class="st3" width="234.35" height="15.98"/>
		<rect x="86.11" y="391.49" class="st4" width="53.04" height="12.48"/>
	</g>
	<g>
		<path class="st5" d="M0,266.63v25.01h137.83v-25.01H0z"/>
		<path class="st6" d="M0,264.6v12.51h137.83V264.6H0z"/>
		<g>
			<path class="st5" d="M133.01,270.66h-2.04v-6.11h2.04V270.66z M122.82,270.66h-2.04v-6.11h2.04V270.66z M112.64,270.66h-2.04
				v-6.11h2.04V270.66z M102.46,270.66h-2.04v-6.11h2.04V270.66z M92.28,270.66h-2.04v-6.11h2.04V270.66z M82.1,270.66h-2.04v-6.11
				h2.04V270.66z M71.91,270.66h-2.04v-6.11h2.04V270.66z M61.73,270.66H59.7v-6.11h2.04V270.66z M51.55,270.66h-2.04v-6.11h2.04
				V270.66z M41.37,270.66h-2.04v-6.11h2.04V270.66z M31.19,270.66h-2.04v-6.11h2.04V270.66z M21,270.66h-2.04v-6.11H21V270.66z
				 M10.82,270.66H8.79v-6.11h2.04V270.66z"/>
		</g>
		<g>
			<path class="st5" d="M127.76,267.61h-2.04v-3.05h2.04V267.61z M117.57,267.61h-2.04v-3.05h2.04V267.61z M107.39,267.61h-2.04
				v-3.05h2.04V267.61z M97.21,267.61h-2.04v-3.05h2.04V267.61z M87.03,267.61h-2.04v-3.05h2.04V267.61z M76.85,267.61h-2.04v-3.05
				h2.04V267.61z M66.67,267.61h-2.04v-3.05h2.04V267.61z M56.48,267.61h-2.04v-3.05h2.04V267.61z M46.3,267.61h-2.04v-3.05h2.04
				V267.61z M36.12,267.61h-2.04v-3.05h2.04V267.61z M25.94,267.61H23.9v-3.05h2.04V267.61z M15.75,267.61h-2.04v-3.05h2.04V267.61z
				"/>
		</g>
	</g>
	<g>
		<g>
			<g>
				<g>
					
						<rect x="136" y="404.63" transform="matrix(0.4232 -0.906 0.906 0.4232 -269.5005 397.4575)" class="st7" width="82.86" height="11.55"/>
				</g>
				<g>
					<polygon class="st2" points="151.3,466.34 156.39,446.3 163.19,449.48 					"/>
				</g>
			</g>
			<g>
				<g>
					
						<rect x="217.19" y="368.98" transform="matrix(0.906 -0.4232 0.4232 0.906 -152.7477 132.9405)" class="st7" width="11.55" height="82.86"/>
				</g>
				<g>
					<polygon class="st2" points="249.09,466.34 244.01,446.3 237.21,449.48 					"/>
				</g>
			</g>
		</g>
		<g>
			<rect x="198.27" y="338.16" class="st2" width="4.09" height="30.91"/>
		</g>
		<g>
			<path class="st5" d="M215.76,375.31c0,8.6-6.97,15.57-15.57,15.57c-8.6,0-15.57-6.97-15.57-15.57c0-8.6,6.97-15.57,15.57-15.57
				C208.79,359.75,215.76,366.72,215.76,375.31z"/>
		</g>
		<g>
			<circle class="st6" cx="200.2" cy="375.31" r="6.25"/>
		</g>
		<g>
			<path class="st4" d="M200.2,411.41c-12.74,0-24.29-6.52-30.9-17.43l4.18-2.53c5.71,9.44,15.7,15.07,26.72,15.07
				c10.38,0,20.06-5.14,25.88-13.76l4.05,2.74C223.4,405.46,212.21,411.41,200.2,411.41z"/>
		</g>
		<g>
			<path class="st7" d="M206.45,335.37c0-0.01,0-0.03,0-0.04v-0.19h-0.02c-0.12-3.34-2.85-6.02-6.23-6.02
				c-3.37,0-6.1,2.68-6.23,6.02h-0.02v0.19c0,0.01,0,0.03,0,0.04c0,0.01,0,0.03,0,0.04v18.21h12.49v-18.21
				C206.44,335.39,206.45,335.38,206.45,335.37z"/>
		</g>
	</g>
	<g>
		<path class="st8" d="M361.5,136.46c0,3.43-2.78,6.21-6.21,6.21h-67.9c-3.43,0-6.21-2.78-6.21-6.21V44.01
			c0-3.43,2.78-6.21,6.21-6.21h67.9c3.43,0,6.21,2.78,6.21,6.21V136.46z"/>
		<path class="st4" d="M361.5,132.32c0,3.43-2.78,6.21-6.21,6.21h-67.9c-3.43,0-6.21-2.78-6.21-6.21V39.87
			c0-3.43,2.78-6.21,6.21-6.21h67.9c3.43,0,6.21,2.78,6.21,6.21V132.32z"/>
		<path class="st8" d="M355.29,33.66h-33.95v104.87h33.95c3.43,0,6.21-2.78,6.21-6.21V39.87C361.5,36.44,358.72,33.66,355.29,33.66z
			"/>
		<rect x="289.5" y="41.47" class="st2" width="63.69" height="18.17"/>
		<rect x="321.34" y="41.47" class="st3" width="31.84" height="18.17"/>
		<path class="st7" d="M289.5,80.16h12.61V67.21H289.5V80.16z M306.52,80.16h12.61V67.21h-12.61V80.16z M323.55,80.16h12.61V67.21
			h-12.61V80.16z M340.58,67.21v12.95h12.61V67.21H340.58z M306.52,97.71h12.61V84.76h-12.61V97.71z M323.55,97.71h12.61V84.76
			h-12.61V97.71z M340.58,97.71h12.61V84.76h-12.61V97.71z M289.5,115.26h12.61v-12.95H289.5V115.26z M306.52,115.26h12.61v-12.95
			h-12.61V115.26z M323.55,115.26h12.61v-12.95h-12.61V115.26z M340.58,115.26h12.61v-12.95h-12.61V115.26z M289.5,97.71h12.61
			V84.76H289.5V97.71z M289.5,132.81h12.61v-12.95H289.5V132.81z M306.52,132.81h12.61v-12.95h-12.61V132.81z M323.55,132.81h12.61
			v-12.95h-12.61V132.81z M340.58,132.81h12.61v-12.95h-12.61V132.81z"/>
		<path class="st9" d="M323.55,80.16h12.61V67.21h-12.61V80.16z M340.58,67.21v12.95h12.61V67.21H340.58z M323.55,97.71h12.61V84.76
			h-12.61V97.71z M340.58,97.71h12.61V84.76h-12.61V97.71z M323.55,115.26h12.61v-12.95h-12.61V115.26z M340.58,115.26h12.61v-12.95
			h-12.61V115.26z M323.55,132.81h12.61v-12.95h-12.61V132.81z M340.58,132.81h12.61v-12.95h-12.61V132.81z"/>
	</g>
	<g>
		<rect x="361.5" y="287.4" class="st7" width="17.63" height="116.57"/>
		<rect x="470.82" y="287.4" class="st9" width="17.62" height="116.57"/>
		<path class="st4" d="M379.13,301.67v5.91h91.7v-5.91H379.13z M379.13,328.11h91.7v-5.91h-91.7V328.11z M379.13,348.64h91.7v-5.91
			h-91.7V348.64z M379.13,369.17h91.7v-5.91h-91.7V369.17z M379.13,389.7h91.7v-5.91h-91.7V389.7z"/>
		<path class="st8" d="M379.13,301.67v5.91H388v-5.91H379.13z M379.13,328.11H388v-5.91h-8.87V328.11z M379.13,348.64H388v-5.91
			h-8.87V348.64z M379.13,369.17H388v-5.91h-8.87V369.17z M379.13,389.7H388v-5.91h-8.87V389.7z"/>
		<g>
			<path class="st2" d="M470.82,304.19c0,4.87-3.95,8.81-8.81,8.81c-4.87,0-8.81-3.95-8.81-8.81c0-4.87,3.95-8.81,8.81-8.81
				C466.88,295.38,470.82,299.32,470.82,304.19z"/>
			<path class="st3" d="M462.01,295.38V313c4.87,0,8.81-3.95,8.81-8.81C470.82,299.32,466.88,295.38,462.01,295.38z"/>
		</g>
		<g>
			<path class="st2" d="M453.2,304.19c0,4.87-3.95,8.81-8.81,8.81c-4.87,0-8.81-3.95-8.81-8.81c0-4.87,3.95-8.81,8.81-8.81
				C449.25,295.38,453.2,299.32,453.2,304.19z"/>
			<path class="st3" d="M444.39,295.38V313c4.87,0,8.81-3.95,8.81-8.81C453.2,299.32,449.25,295.38,444.39,295.38z"/>
		</g>
		<g>
			<path class="st2" d="M435.57,304.19c0,4.87-3.95,8.81-8.81,8.81c-4.87,0-8.81-3.95-8.81-8.81c0-4.87,3.95-8.81,8.81-8.81
				C431.63,295.38,435.57,299.32,435.57,304.19z"/>
			<path class="st3" d="M426.76,295.38V313c4.87,0,8.81-3.95,8.81-8.81C435.57,299.32,431.63,295.38,426.76,295.38z"/>
		</g>
		<g>
			<path class="st2" d="M470.82,324.79c0,4.87-3.95,8.81-8.81,8.81c-4.87,0-8.81-3.95-8.81-8.81c0-4.87,3.95-8.81,8.81-8.81
				C466.88,315.97,470.82,319.92,470.82,324.79z"/>
			<path class="st3" d="M462.01,315.97v17.62c4.87,0,8.81-3.95,8.81-8.81C470.82,319.92,466.88,315.97,462.01,315.97z"/>
		</g>
		<g>
			<path class="st2" d="M453.2,324.79c0,4.87-3.95,8.81-8.81,8.81c-4.87,0-8.81-3.95-8.81-8.81c0-4.87,3.95-8.81,8.81-8.81
				C449.25,315.97,453.2,319.92,453.2,324.79z"/>
			<path class="st3" d="M444.39,315.97v17.62c4.87,0,8.81-3.95,8.81-8.81C453.2,319.92,449.25,315.97,444.39,315.97z"/>
		</g>
		<g>
			<path class="st2" d="M435.57,324.79c0,4.87-3.95,8.81-8.81,8.81c-4.87,0-8.81-3.95-8.81-8.81c0-4.87,3.95-8.81,8.81-8.81
				C431.63,315.97,435.57,319.92,435.57,324.79z"/>
			<path class="st3" d="M426.76,315.97v17.62c4.87,0,8.81-3.95,8.81-8.81C435.57,319.92,431.63,315.97,426.76,315.97z"/>
		</g>
		<g>
			<path class="st2" d="M470.82,345.68c0,4.87-3.95,8.81-8.81,8.81c-4.87,0-8.81-3.95-8.81-8.81c0-4.87,3.95-8.81,8.81-8.81
				C466.88,336.87,470.82,340.82,470.82,345.68z"/>
			<path class="st3" d="M462.01,336.87v17.62c4.87,0,8.81-3.95,8.81-8.81C470.82,340.82,466.88,336.87,462.01,336.87z"/>
		</g>
		<g>
			<path class="st2" d="M453.2,345.68c0,4.87-3.95,8.81-8.81,8.81c-4.87,0-8.81-3.95-8.81-8.81c0-4.87,3.95-8.81,8.81-8.81
				C449.25,336.87,453.2,340.82,453.2,345.68z"/>
			<path class="st3" d="M444.39,336.87v17.62c4.87,0,8.81-3.95,8.81-8.81C453.2,340.82,449.25,336.87,444.39,336.87z"/>
		</g>
		<g>
			<circle class="st2" cx="409.14" cy="345.68" r="8.81"/>
			<path class="st3" d="M409.14,336.87v17.62c4.87,0,8.81-3.95,8.81-8.81C417.95,340.82,414,336.87,409.14,336.87z"/>
		</g>
		<g>
			<path class="st5" d="M417.95,366.7c0,4.87-3.95,8.81-8.81,8.81c-4.87,0-8.81-3.95-8.81-8.81c0-4.87,3.95-8.81,8.81-8.81
				C414,357.89,417.95,361.84,417.95,366.7z"/>
			<path class="st10" d="M409.14,357.89v17.63c4.87,0,8.81-3.95,8.81-8.81C417.95,361.84,414,357.89,409.14,357.89z"/>
		</g>
		<g>
			<path class="st5" d="M435.57,366.7c0,4.87-3.95,8.81-8.81,8.81c-4.87,0-8.81-3.95-8.81-8.81c0-4.87,3.95-8.81,8.81-8.81
				C431.63,357.89,435.57,361.84,435.57,366.7z"/>
			<path class="st10" d="M426.76,357.89v17.63c4.87,0,8.81-3.95,8.81-8.81C435.57,361.84,431.63,357.89,426.76,357.89z"/>
		</g>
		<g>
			<path class="st5" d="M453.2,386.06c0,4.87-3.95,8.81-8.81,8.81c-4.87,0-8.81-3.95-8.81-8.81c0-4.87,3.95-8.81,8.81-8.81
				C449.25,377.25,453.2,381.19,453.2,386.06z"/>
			<path class="st10" d="M444.39,377.25v17.62c4.87,0,8.81-3.95,8.81-8.81C453.2,381.19,449.25,377.25,444.39,377.25z"/>
		</g>
		<g>
			<path class="st5" d="M470.82,386.06c0,4.87-3.95,8.81-8.81,8.81c-4.87,0-8.81-3.95-8.81-8.81c0-4.87,3.95-8.81,8.81-8.81
				C466.88,377.25,470.82,381.19,470.82,386.06z"/>
			<path class="st10" d="M462.01,377.25v17.62c4.87,0,8.81-3.95,8.81-8.81C470.82,381.19,466.88,377.25,462.01,377.25z"/>
		</g>
		<g>
			<path class="st2" d="M417.95,304.19c0,4.87-3.95,8.81-8.81,8.81c-4.87,0-8.81-3.95-8.81-8.81c0-4.87,3.95-8.81,8.81-8.81
				C414,295.38,417.95,299.32,417.95,304.19z"/>
			<path class="st3" d="M409.14,295.38V313c4.87,0,8.81-3.95,8.81-8.81C417.95,299.32,414,295.38,409.14,295.38z"/>
		</g>
	</g>
	<g>
		<path class="st5" d="M399.29,118.78V266.5h99.01L399.29,118.78z M421.75,244.04v-51.4l34.45,51.4H421.75z"/>
		<path class="st10" d="M437.34,175.64l-6.21,4.16l1.39,2.07l6.21-4.16L437.34,175.64z M465.06,217.02l-6.21,4.16l1.39,2.07
			l6.21-4.16L465.06,217.02z M458.13,206.67l-6.21,4.16l1.39,2.07l6.21-4.16L458.13,206.67z M444.27,185.98l-6.21,4.16l1.39,2.07
			l6.21-4.16L444.27,185.98z M451.2,196.33l-6.21,4.16l1.39,2.07l6.21-4.16L451.2,196.33z M430.41,165.29l-6.21,4.16l1.39,2.07
			l6.21-4.16L430.41,165.29z M423.48,154.95l-6.21,4.16l1.39,2.07l6.21-4.16L423.48,154.95z M471.99,227.36l-6.21,4.16l1.39,2.07
			l6.21-4.16L471.99,227.36z M494.17,260.47l-1.39-2.07l-6.21,4.16l1.39,2.07L494.17,260.47z M485.85,248.05l-6.21,4.16l1.39,2.07
			l6.21-4.16L485.85,248.05z M409.62,134.26l-6.21,4.16l1.39,2.07l6.21-4.16L409.62,134.26z M416.55,144.6l-6.21,4.16l1.39,2.07
			l6.21-4.16L416.55,144.6z M478.92,237.71l-6.21,4.16l1.39,2.07l6.21-4.16L478.92,237.71z M433.77,170.31l-3.1,2.08l1.39,2.07
			l3.1-2.08L433.77,170.31z M412.98,139.27l-3.1,2.08l1.39,2.07l3.1-2.08L412.98,139.27z M426.84,159.96l-3.1,2.08l1.39,2.07
			l3.1-2.08L426.84,159.96z M419.91,149.62l-3.1,2.08l1.39,2.07l3.1-2.08L419.91,149.62z M475.35,232.37l-3.1,2.08l1.39,2.07
			l3.1-2.08L475.35,232.37z M468.42,222.03l-3.1,2.08l1.39,2.07l3.1-2.08L468.42,222.03z M482.28,242.72l-3.1,2.08l1.39,2.07
			l3.1-2.08L482.28,242.72z M489.21,253.06l-3.1,2.08l1.39,2.07l3.1-2.08L489.21,253.06z M440.7,180.65l-3.1,2.08l1.39,2.07
			l3.1-2.08L440.7,180.65z M461.49,211.68l-3.1,2.08l1.39,2.07l3.1-2.08L461.49,211.68z M447.63,190.99l-3.1,2.08l1.39,2.07
			l3.1-2.08L447.63,190.99z M454.56,201.34l-3.1,2.08l1.39,2.07l3.1-2.08L454.56,201.34z"/>
	</g>
	<g class="st11">
		<path class="st12" d="M255.86,237.69h-15.24v-2.74l5.8-5.83c1.71-1.75,2.85-3,3.41-3.73c0.56-0.73,0.97-1.42,1.22-2.07
			c0.26-0.65,0.38-1.34,0.38-2.08c0-1.01-0.3-1.81-0.91-2.4c-0.61-0.58-1.45-0.88-2.53-0.88c-0.86,0-1.69,0.16-2.5,0.48
			c-0.8,0.32-1.73,0.89-2.79,1.72l-1.95-2.38c1.25-1.06,2.47-1.8,3.64-2.24c1.18-0.44,2.43-0.66,3.77-0.66
			c2.09,0,3.77,0.55,5.03,1.64c1.26,1.09,1.89,2.56,1.89,4.4c0,1.01-0.18,1.98-0.55,2.89c-0.36,0.91-0.92,1.85-1.68,2.82
			c-0.75,0.97-2.01,2.28-3.76,3.93l-3.91,3.78v0.15h10.67V237.69z"/>
		<path class="st12" d="M280.55,227.96h-6.12v-2.74h6.12v-6.27h2.77v6.27h6.13v2.74h-6.13v6.24h-2.77V227.96z"/>
		<path class="st12" d="M323.29,237.69h-15.24v-2.74l5.8-5.83c1.71-1.75,2.85-3,3.41-3.73s0.97-1.42,1.22-2.07
			c0.26-0.65,0.38-1.34,0.38-2.08c0-1.01-0.3-1.81-0.91-2.4c-0.61-0.58-1.45-0.88-2.53-0.88c-0.86,0-1.69,0.16-2.5,0.48
			c-0.8,0.32-1.73,0.89-2.79,1.72l-1.95-2.38c1.25-1.06,2.46-1.8,3.64-2.24c1.18-0.44,2.43-0.66,3.77-0.66
			c2.09,0,3.77,0.55,5.03,1.64c1.26,1.09,1.89,2.56,1.89,4.4c0,1.01-0.18,1.98-0.55,2.89c-0.36,0.91-0.92,1.85-1.68,2.82
			c-0.75,0.97-2.01,2.28-3.76,3.93l-3.91,3.78v0.15h10.67V237.69z"/>
		<path class="st12" d="M341.95,224.91v-2.75h14.81v2.75H341.95z M341.95,231.05v-2.74h14.81v2.74H341.95z"/>
		<path class="st12" d="M391.52,232.78h-3.03v4.9h-3.52v-4.9H374.7V230l10.27-14.85h3.52v14.64h3.03V232.78z M384.97,229.79v-5.64
			c0-2.01,0.05-3.65,0.15-4.94H385c-0.29,0.68-0.74,1.5-1.35,2.46l-5.58,8.12H384.97z"/>
	</g>
	<g class="st11">
		<path class="st12" d="M148.16,324.9c2.27,0,4.06,0.6,5.38,1.8c1.32,1.2,1.98,2.83,1.98,4.9c0,2.4-0.75,4.27-2.25,5.62
			c-1.5,1.35-3.64,2.02-6.4,2.02c-2.51,0-4.48-0.4-5.92-1.21v-3.27c0.83,0.47,1.78,0.84,2.86,1.09c1.08,0.26,2.08,0.38,3,0.38
			c1.63,0,2.87-0.36,3.72-1.09c0.85-0.73,1.28-1.79,1.28-3.2c0-2.69-1.71-4.03-5.14-4.03c-0.48,0-1.08,0.05-1.78,0.15
			c-0.71,0.1-1.33,0.21-1.86,0.33l-1.61-0.95l0.86-10.98h11.68v3.21h-8.5l-0.51,5.57c0.36-0.06,0.8-0.13,1.31-0.22
			C146.78,324.94,147.41,324.9,148.16,324.9z"/>
		<path class="st12" d="M179.23,330.25l-5.7-8.32h4.12l3.87,5.95l3.91-5.95h4.09l-5.72,8.32l6.01,8.69h-4.09l-4.2-6.37l-4.18,6.37
			h-4.09L179.23,330.25z"/>
		<path class="st12" d="M214.96,324.9c2.27,0,4.06,0.6,5.38,1.8c1.32,1.2,1.98,2.83,1.98,4.9c0,2.4-0.75,4.27-2.25,5.62
			c-1.5,1.35-3.64,2.02-6.4,2.02c-2.51,0-4.48-0.4-5.92-1.21v-3.27c0.83,0.47,1.78,0.84,2.86,1.09c1.08,0.26,2.08,0.38,3,0.38
			c1.63,0,2.87-0.36,3.72-1.09c0.85-0.73,1.28-1.79,1.28-3.2c0-2.69-1.71-4.03-5.14-4.03c-0.48,0-1.08,0.05-1.78,0.15
			c-0.71,0.1-1.33,0.21-1.86,0.33l-1.61-0.95l0.86-10.98h11.68v3.21h-8.5l-0.51,5.57c0.36-0.06,0.8-0.13,1.31-0.22
			C213.58,324.94,214.21,324.9,214.96,324.9z"/>
		<path class="st12" d="M241.24,326.16v-2.75h14.81v2.75H241.24z M241.24,332.3v-2.74h14.81v2.74H241.24z"/>
		<path class="st12" d="M290.01,338.94h-15.24v-2.74l5.8-5.83c1.71-1.75,2.85-3,3.41-3.73s0.97-1.42,1.22-2.07
			c0.26-0.65,0.38-1.34,0.38-2.08c0-1.01-0.3-1.81-0.91-2.4c-0.61-0.58-1.45-0.88-2.53-0.88c-0.86,0-1.69,0.16-2.5,0.48
			c-0.8,0.32-1.73,0.89-2.79,1.72l-1.95-2.38c1.25-1.06,2.47-1.8,3.64-2.24c1.18-0.44,2.43-0.66,3.77-0.66
			c2.09,0,3.77,0.55,5.03,1.64c1.26,1.09,1.89,2.56,1.89,4.4c0,1.01-0.18,1.98-0.55,2.89c-0.36,0.91-0.92,1.85-1.68,2.82
			s-2.01,2.28-3.76,3.93l-3.91,3.78v0.15h10.67V338.94z"/>
		<path class="st12" d="M316.11,324.9c2.26,0,4.06,0.6,5.38,1.8c1.32,1.2,1.98,2.83,1.98,4.9c0,2.4-0.75,4.27-2.25,5.62
			c-1.5,1.35-3.64,2.02-6.4,2.02c-2.51,0-4.48-0.4-5.92-1.21v-3.27c0.83,0.47,1.78,0.84,2.86,1.09c1.08,0.26,2.08,0.38,3,0.38
			c1.63,0,2.87-0.36,3.72-1.09c0.85-0.73,1.28-1.79,1.28-3.2c0-2.69-1.71-4.03-5.14-4.03c-0.48,0-1.08,0.05-1.78,0.15
			c-0.71,0.1-1.33,0.21-1.86,0.33l-1.61-0.95l0.86-10.98h11.68v3.21h-8.5l-0.51,5.57c0.36-0.06,0.8-0.13,1.31-0.22
			C314.73,324.94,315.36,324.9,316.11,324.9z"/>
	</g>
	<g class="st11">
		<path class="st12" d="M145.51,159.31l-5.7-8.32h4.12l3.87,5.95l3.91-5.95h4.09l-5.72,8.32l6.01,8.69H152l-4.2-6.37l-4.18,6.37
			h-4.09L145.51,159.31z"/>
		<path class="st12" d="M179.83,158.26h-6.12v-2.74h6.12v-6.27h2.77v6.27h6.13v2.74h-6.13v6.24h-2.77V158.26z"/>
		<path class="st12" d="M222.57,168h-15.24v-2.74l5.8-5.83c1.71-1.75,2.85-3,3.41-3.73s0.97-1.42,1.22-2.07
			c0.26-0.65,0.38-1.34,0.38-2.08c0-1.01-0.3-1.81-0.91-2.4c-0.61-0.58-1.45-0.88-2.53-0.88c-0.86,0-1.69,0.16-2.5,0.48
			c-0.8,0.32-1.73,0.89-2.79,1.72l-1.95-2.38c1.25-1.06,2.47-1.8,3.64-2.24c1.18-0.44,2.43-0.66,3.77-0.66
			c2.09,0,3.77,0.55,5.03,1.64c1.26,1.09,1.89,2.56,1.89,4.4c0,1.01-0.18,1.98-0.55,2.89c-0.36,0.91-0.92,1.85-1.68,2.82
			c-0.75,0.97-2.01,2.28-3.76,3.93l-3.91,3.78v0.15h10.67V168z"/>
		<path class="st12" d="M248.68,153.96c2.26,0,4.06,0.6,5.38,1.8c1.32,1.2,1.98,2.83,1.98,4.9c0,2.4-0.75,4.27-2.25,5.62
			c-1.5,1.35-3.64,2.02-6.4,2.02c-2.51,0-4.48-0.4-5.92-1.21v-3.27c0.83,0.47,1.78,0.84,2.86,1.09c1.08,0.26,2.08,0.38,3,0.38
			c1.63,0,2.87-0.36,3.72-1.09c0.85-0.73,1.28-1.79,1.28-3.2c0-2.69-1.71-4.03-5.14-4.03c-0.48,0-1.08,0.05-1.78,0.15
			c-0.71,0.1-1.33,0.21-1.86,0.33l-1.61-0.95l0.86-10.98h11.68v3.21h-8.5l-0.51,5.57c0.36-0.06,0.8-0.13,1.31-0.22
			C247.3,154,247.93,153.96,248.68,153.96z"/>
		<path class="st12" d="M274.95,155.22v-2.75h14.81v2.75H274.95z M274.95,161.35v-2.74h14.81v2.74H274.95z"/>
		<path class="st12" d="M307.1,150.99h3.94l3.46,9.64c0.52,1.37,0.87,2.67,1.05,3.87h0.12c0.09-0.56,0.26-1.25,0.51-2.05
			c0.25-0.8,1.55-4.63,3.91-11.46h3.91l-7.27,19.26c-1.32,3.54-3.53,5.3-6.61,5.3c-0.8,0-1.58-0.09-2.34-0.26v-2.86
			c0.54,0.12,1.16,0.18,1.86,0.18c1.74,0,2.97-1.01,3.67-3.03l0.63-1.6L307.1,150.99z"/>
	</g>
	<g>
		<path class="st2" d="M154.86,205.24c0-30.08-24.38-54.46-54.46-54.46s-54.46,24.38-54.46,54.46H30.39v27.81H170.4v-27.81H154.86z
			 M71.43,205.24c0-15.97,12.99-28.96,28.96-28.96c15.97,0,28.96,12.99,28.96,28.96H71.43z"/>
		<path class="st3" d="M139.37,170.49l-4.41,3.95c0.62,0.69,1.22,1.41,1.8,2.14l4.64-3.68
			C140.74,172.08,140.07,171.28,139.37,170.49z M129.93,162.18l-3.36,4.88c0.77,0.53,1.52,1.08,2.27,1.66l3.64-4.67
			C131.64,163.39,130.8,162.78,129.93,162.18z M134.9,166.06l-3.92,4.44c0.7,0.62,1.39,1.26,2.05,1.92l4.17-4.21
			C136.45,167.47,135.69,166.75,134.9,166.06z M105.84,159.27c0.93,0.11,1.85,0.25,2.76,0.41l1.05-5.83
			c-1.03-0.18-2.07-0.34-3.12-0.46L105.84,159.27z M116.67,161.89c0.87,0.33,1.74,0.69,2.59,1.07l2.42-5.41
			c-0.96-0.43-1.93-0.83-2.92-1.2L116.67,161.89z M124.52,158.93l-2.74,5.25c0.83,0.44,1.64,0.89,2.44,1.37l3.05-5.08
			C126.37,159.93,125.46,159.42,124.52,158.93z M111.34,160.25c0.9,0.22,1.8,0.46,2.67,0.74l1.77-5.65
			c-1.01-0.31-2.03-0.59-3.06-0.84L111.34,160.25z M151.05,192.55l-5.75,1.44c0.22,0.9,0.42,1.81,0.6,2.73l5.82-1.09
			C151.53,194.59,151.31,193.57,151.05,192.55z M152.21,198.75l-5.88,0.73c0.11,0.92,0.2,1.85,0.26,2.78l5.91-0.37
			C152.44,200.83,152.34,199.78,152.21,198.75z M146.55,180.81l-5.23,2.78c0.43,0.82,0.84,1.64,1.22,2.49l5.4-2.43
			C147.51,182.68,147.05,181.73,146.55,180.81z M143.27,175.44l-4.86,3.39c0.53,0.77,1.04,1.54,1.53,2.34l5.05-3.09
			C144.44,177.18,143.87,176.3,143.27,175.44z M149.16,186.53l-5.53,2.13c0.33,0.87,0.64,1.74,0.92,2.63l5.65-1.78
			C149.88,188.51,149.54,187.51,149.16,186.53z M65.68,166.24l3.95,4.42c0.69-0.62,1.41-1.22,2.14-1.79l-3.66-4.66
			C67.28,164.86,66.47,165.54,65.68,166.24z M51.53,186.83l5.54,2.09c0.33-0.87,0.69-1.74,1.07-2.59l-5.41-2.42
			C52.3,184.87,51.9,185.84,51.53,186.83z M54.11,181.07l5.25,2.75c0.43-0.83,0.89-1.64,1.37-2.44l-5.08-3.05
			C55.11,179.22,54.59,180.14,54.11,181.07z M57.36,175.67l4.88,3.36c0.53-0.77,1.08-1.52,1.66-2.26l-4.67-3.64
			C58.58,173.96,57.96,174.8,57.36,175.67z M49.66,192.86l5.76,1.4c0.22-0.91,0.47-1.81,0.74-2.69l-5.66-1.75
			C50.19,190.82,49.91,191.84,49.66,192.86z M48.55,199.06l5.88,0.69c0.11-0.93,0.25-1.85,0.41-2.76l-5.83-1.05
			C48.83,196.97,48.67,198.01,48.55,199.06z M48.19,205.09l0,0.15h5.92c0-0.91,0.03-1.81,0.08-2.7l-5.91-0.34
			C48.22,203.21,48.19,204.22,48.19,205.09z M81.74,156.46l2.11,5.53c0.87-0.33,1.75-0.64,2.64-0.92l-1.78-5.65
			C83.71,155.74,82.72,156.09,81.74,156.46z M87.75,154.57l1.44,5.75c0.9-0.22,1.81-0.42,2.72-0.59l-1.07-5.83
			C89.8,154.09,88.77,154.32,87.75,154.57z M100.24,153.03l0.15,5.93c0.89,0,1.77,0.03,2.65,0.07l0.34-5.91
			c-0.99-0.06-1.99-0.09-2.99-0.09H100.24z M93.95,153.43l0.73,5.88c0.92-0.11,1.85-0.2,2.78-0.26l-0.37-5.91
			C96.03,153.2,94.99,153.29,93.95,153.43z M70.64,162.34l3.38,4.87c0.77-0.53,1.55-1.04,2.35-1.53l-3.09-5.05
			C72.38,161.17,71.5,161.74,70.64,162.34z M76.01,159.07l2.76,5.24c0.82-0.44,1.66-0.84,2.51-1.23l-2.46-5.39
			C77.88,158.12,76.94,158.58,76.01,159.07z M61.24,170.7l4.44,3.92c0.62-0.7,1.26-1.39,1.92-2.05l-4.21-4.16
			C62.65,169.16,61.94,169.92,61.24,170.7z"/>
		<rect x="30.39" y="225.75" class="st3" width="140.01" height="7.3"/>
	</g>
</g>
</svg>
