<?xml version="1.0" encoding="utf-8"?>
<!-- Generator: Adobe Illustrator 25.0.0, SVG Export Plug-In . SVG Version: 6.00 Build 0)  -->
<svg version="1.1" id="Слой_1" xmlns="http://www.w3.org/2000/svg" xmlns:xlink="http://www.w3.org/1999/xlink" x="0px" y="0px"
	 viewBox="0 0 500 500" style="enable-background:new 0 0 500 500;" xml:space="preserve">
<style type="text/css">
	.st0{fill:#D9648B;}
	.st1{fill:#8DC375;}
	.st2{fill:#64B044;}
	.st3{fill:#DC4437;}
	.st4{fill:#FFFFFF;}
	.st5{fill:#FCF6A8;}
	.st6{fill:#F8EF6C;}
	.st7{fill:#861B47;}
	.st8{fill:#80B36A;}
	.st9{fill:#FC611F;}
	.st10{fill:#3F5CA8;}
	.st11{fill:#E34E10;}
	.st12{fill:#F5B400;}
	.st13{fill:#43459C;}
	.st14{fill:#991C48;}
</style>
<g>
	<circle class="st0" cx="250.1" cy="239.68" r="200.31"/>
	<g>
		<path class="st0" d="M250.1,456.64c-119.63,0-216.96-97.33-216.96-216.96c0-119.63,97.33-216.96,216.96-216.96
			s216.96,97.33,216.96,216.96C467.06,359.31,369.74,456.64,250.1,456.64z M250.1,28.63c-116.38,0-211.06,94.68-211.06,211.06
			c0,116.38,94.68,211.06,211.06,211.06c116.38,0,211.06-94.68,211.06-211.06C461.17,123.3,366.48,28.63,250.1,28.63z"/>
	</g>
	<g>
		<path class="st0" d="M434.57,382.6l-4.83-3.75c31.13-40.13,47.59-88.25,47.59-139.17c0-47.18-14.32-92.42-41.42-130.83l4.99-3.52
			c27.82,39.44,42.53,85.9,42.53,134.35C483.45,291.97,466.55,341.39,434.57,382.6z"/>
	</g>
	<g>
		<path class="st0" d="M476.31,346.02l-5.53-2.6c15.33-32.56,23.11-67.46,23.11-103.73c0-33.18-6.55-65.34-19.46-95.6l5.62-2.4
			c13.24,31.02,19.95,63.99,19.95,97.99C500,276.86,492.03,312.64,476.31,346.02z"/>
	</g>
	<g>
		<path class="st0" d="M65.43,382.6c-31.97-41.21-48.88-90.63-48.88-142.92c0-48.44,14.71-94.9,42.53-134.35l4.99,3.52
			c-27.1,38.41-41.42,83.65-41.42,130.83c0,50.91,16.46,99.04,47.59,139.17L65.43,382.6z"/>
	</g>
	<g>
		<path class="st0" d="M23.69,346.02C7.97,312.64,0,276.86,0,239.68c0-34.01,6.71-66.98,19.94-97.99l5.62,2.4
			c-12.91,30.25-19.46,62.42-19.46,95.6c0,36.27,7.77,71.17,23.1,103.73L23.69,346.02z"/>
	</g>
	<g>
		<g>
			<g>
				<g>
					<path class="st1" d="M425.43,305.98c0,0-8.77,0.45-14.46,6.14c-2.31,2.31-3.75,5.12-4.65,7.65v-3.5h-3.27v19.38h3.27v-9.25
						c2.75-0.4,8.72-1.72,12.97-5.97C424.98,314.75,425.43,305.98,425.43,305.98z"/>
				</g>
				<path class="st2" d="M404.89,325.95c-0.04,0.39-0.06,0.63-0.06,0.63s8.77-0.45,14.46-6.14c5.69-5.69,6.14-14.46,6.14-14.46
					s-0.14,0.01-0.38,0.03L404.89,325.95z"/>
			</g>
			<g>
				<path class="st3" d="M427.66,325.18c-8.32,0-16.23,4.01-22.82,10.55c-6.59-6.54-14.5-10.55-22.82-10.55
					c-25.21,0-35.3,31.34-26.17,59c6.65,20.15,22.23,32.87,36.28,32.87c4.64,0,8.93-1.28,12.71-3.56c3.79,2.27,8.08,3.56,12.71,3.56
					c14.04,0,29.63-12.72,36.28-32.87C462.96,356.51,452.87,325.18,427.66,325.18z"/>
				<path class="st4" d="M376.76,333.89c-4.22,0-7.63,3.42-7.63,7.63c0,4.22,3.42,7.63,7.63,7.63c4.22,0,7.63-3.42,7.63-7.63
					C384.39,337.3,380.97,333.89,376.76,333.89z M366.12,353.08c-1.66,0-3.01,1.35-3.01,3.01c0,1.66,1.35,3.01,3.01,3.01
					c1.66,0,3.01-1.35,3.01-3.01C369.13,354.43,367.78,353.08,366.12,353.08z"/>
			</g>
		</g>
		<polygon class="st5" points="415.14,445.84 415.14,429.03 395.46,429.03 395.46,445.84 384.29,445.84 404.84,478.72 426.3,445.84 
					"/>
		<polygon class="st6" points="415.14,445.84 415.14,429.03 404.84,429.03 404.84,478.72 426.3,445.84 		"/>
	</g>
	<g>
		<path class="st3" d="M111.81,40.64l-0.09,62.66c0,15.75-12.77,28.52-28.52,28.52s-28.52-12.77-28.52-28.52l-0.09-62.66H32v62.66
			c0,28.27,22.92,51.2,51.2,51.2s51.2-22.92,51.2-51.2V40.64H111.81z"/>
		<path class="st7" d="M111.81,40.64l-0.09,62.66c0,15.75-12.77,28.52-28.52,28.52v22.68c28.27,0,51.2-22.92,51.2-51.2V40.64H111.81
			z"/>
		<rect x="111.81" y="40.64" class="st5" width="22.58" height="14.44"/>
		<rect x="32" y="40.64" class="st5" width="22.58" height="14.44"/>
		<path class="st5" d="M18.52,15.11l-1.33,1.34L35.1,34.29l1.33-1.34L18.52,15.11z M51.55,34.2L69.4,16.28l-1.34-1.33L50.22,32.87
			L51.55,34.2z M42.65,32.22l1.88,0L44.48,6.72l-1.88,0L42.65,32.22z"/>
		<path class="st5" d="M98.33,15.11L97,16.44l17.91,17.84l1.33-1.34L98.33,15.11z M131.36,34.2l17.84-17.91l-1.34-1.33l-17.84,17.91
			L131.36,34.2z M122.46,32.22l1.88,0l-0.05-25.49l-1.88,0L122.46,32.22z"/>
	</g>
	<circle class="st8" cx="97" cy="386.35" r="68.55"/>
	<g>
		<path class="st5" d="M121.57,396.69c9.75-9.75,9.75-25.55,0-35.29c-9.75-9.75-25.55-9.75-35.3,0
			c-9.66,9.66-8.55,16.42-10.12,25.82c-1.03,6.19-5.11,10.27-5.11,10.27l14.43,14.43c0,0,4.08-4.08,10.27-5.11
			C105.15,405.25,111.91,406.35,121.57,396.69z"/>
		<path class="st6" d="M121.57,361.4L78.26,404.7l7.21,7.21c0,0,4.08-4.08,10.27-5.11c9.4-1.56,16.16-0.46,25.82-10.12
			C131.32,386.94,131.32,371.14,121.57,361.4z"/>
		<path class="st9" d="M83.21,409.65l5.37-5.37c1.54-1.54,1.54-4.05,0-5.59l-4.3-4.3c-1.54-1.54-4.05-1.54-5.59,0l-5.37,5.37
			L83.21,409.65z"/>
		
			<rect x="67.25" y="399.06" transform="matrix(0.7071 -0.7071 0.7071 0.7071 -267.8067 171.982)" class="st10" width="12.9" height="20.4"/>
		<path class="st9" d="M61.92,406.61l-0.74,0.74c-1.54,1.54-1.54,4.05,0,5.59l8.83,8.83c1.54,1.54,4.05,1.54,5.59,0l0.74-0.74
			L61.92,406.61z"/>
		<path class="st5" d="M62.07,420.89c1.95,1.95,5.11,1.95,7.06,0l-7.06-7.06C60.12,415.78,60.12,418.94,62.07,420.89z"/>
		<path class="st11" d="M88.57,398.7l-2.15-2.15l-8.16,8.16l4.95,4.95l5.37-5.37C90.12,402.74,90.12,400.24,88.57,398.7z"/>
		<g>
			<path class="st12" d="M80.01,406.46c0,0,11.5-11.56,15.34-15.4c1.25-1.25,2.99-2.13,4.67-2.98c1.94-0.98,3.94-1.99,4.14-3.22
				c0.14-0.91-0.62-2.23-2.22-3.83c-1.6-1.6-2.92-2.36-3.84-2.21c-1.26,0.2-2.29,2.23-3.29,4.19c-0.84,1.65-1.71,3.36-2.92,4.58
				l-15.37,15.37L75,401.44l15.37-15.37c0.98-0.98,1.76-2.53,2.53-4.03c1.24-2.44,2.52-4.97,4.86-5.34c1.69-0.27,3.5,0.63,5.69,2.81
				c2.19,2.19,3.09,4,2.82,5.68c-0.37,2.31-2.87,3.57-5.29,4.79c-1.53,0.77-3.11,1.57-4.12,2.58c-3.84,3.84-15.33,15.39-15.33,15.39
				L80.01,406.46z"/>
		</g>
		
			<rect x="70.85" y="407.76" transform="matrix(0.7071 -0.7071 0.7071 0.7071 -269.2995 175.5859)" class="st13" width="12.9" height="10.2"/>
		<path class="st6" d="M65.6,417.36l-3.53,3.53c1.95,1.95,5.11,1.95,7.06,0L65.6,417.36z"/>
		<path class="st11" d="M69.14,413.83l-3.54,3.54l4.41,4.41c1.54,1.54,4.05,1.54,5.59,0l0.74-0.74L69.14,413.83z"/>
		<path class="st6" d="M77.57,365.71c0.42-0.59,0.28-1.42-0.32-1.84l-7.69-5.42c-0.59-0.42-1.42-0.28-1.84,0.32
			c-0.37,0.53-0.3,1.25,0.14,1.69c0.05,0.05,0.11,0.1,0.17,0.15l7.69,5.42C76.33,366.45,77.15,366.3,77.57,365.71z M117.88,342.16
			c0.25-0.68-0.1-1.44-0.78-1.69c-0.68-0.25-1.44,0.1-1.69,0.78l-3.25,8.83c-0.18,0.5-0.05,1.03,0.3,1.39
			c0.13,0.13,0.29,0.24,0.48,0.3c0.68,0.25,1.44-0.1,1.69-0.78L117.88,342.16z M98.02,349.75c0.03,0.32,0.17,0.61,0.38,0.82
			c0.27,0.27,0.64,0.42,1.04,0.38c0.73-0.06,1.26-0.7,1.2-1.42l-0.79-9.38c-0.06-0.73-0.7-1.26-1.42-1.2
			c-0.73,0.06-1.26,0.7-1.2,1.42L98.02,349.75z M80.39,347.25l4.68,8.17c0.06,0.1,0.13,0.2,0.21,0.28c0.41,0.41,1.06,0.51,1.59,0.21
			c0.63-0.36,0.85-1.17,0.49-1.8l-4.68-8.17c-0.36-0.63-1.17-0.85-1.8-0.49C80.25,345.82,80.03,346.62,80.39,347.25z M72.21,377
			l-9.27-1.67c-0.72-0.13-1.4,0.35-1.53,1.06c-0.08,0.44,0.07,0.87,0.37,1.17c0.18,0.18,0.42,0.31,0.7,0.36l9.27,1.67
			c0.72,0.13,1.4-0.35,1.53-1.06C73.41,377.81,72.93,377.13,72.21,377z M133.28,349.68c-0.51-0.42-1.29-0.44-1.78,0.05l-6.68,6.63
			c-0.5,0.5-0.51,1.29-0.04,1.81c0.52,0.47,1.31,0.46,1.81-0.04l6.63-6.68C133.72,350.97,133.7,350.19,133.28,349.68z
			 M132.39,384.56c0.21,0.21,0.5,0.35,0.82,0.38l9.38,0.79c0.73,0.06,1.36-0.48,1.42-1.2c0.06-0.72-0.47-1.36-1.2-1.42l-9.38-0.79
			c-0.73-0.06-1.36,0.48-1.42,1.2C131.98,383.92,132.13,384.29,132.39,384.56z M127.06,396.09c-0.3,0.53-0.2,1.18,0.21,1.59
			c0.08,0.08,0.17,0.15,0.28,0.21l8.17,4.68c0.63,0.36,1.44,0.14,1.8-0.49c0.36-0.63,0.14-1.44-0.49-1.8l-8.17-4.68
			C128.22,395.24,127.42,395.46,127.06,396.09z M124.51,413.41l-5.42-7.69c-0.42-0.59-1.24-0.74-1.84-0.32
			c-0.59,0.42-0.74,1.24-0.32,1.84l5.42,7.69c0.04,0.06,0.09,0.12,0.15,0.17c0.44,0.44,1.16,0.52,1.69,0.14
			C124.79,414.83,124.93,414,124.51,413.41z M105.97,410.75c-0.13-0.72-0.81-1.19-1.53-1.06c-0.72,0.13-1.19,0.81-1.06,1.53
			l1.67,9.27c0.05,0.28,0.18,0.51,0.36,0.7c0.29,0.29,0.72,0.45,1.17,0.37c0.72-0.13,1.19-0.81,1.06-1.53L105.97,410.75z
			 M142.49,365.87c-0.25-0.68-1.01-1.03-1.69-0.78l-8.83,3.25c-0.68,0.25-1.03,1.01-0.78,1.69c0.07,0.18,0.17,0.35,0.3,0.48
			c0.35,0.35,0.89,0.49,1.39,0.3l8.83-3.25C142.39,367.31,142.74,366.55,142.49,365.87z"/>
	</g>
	<g>
		<path class="st5" d="M370.69,50.8c0,9.93-8.05,17.97-17.97,17.97c-9.92,0-17.97-8.05-17.97-17.97s8.05-17.97,17.97-17.97
			C362.64,32.83,370.69,40.88,370.69,50.8z"/>
		<rect x="342.54" y="47.39" class="st14" width="20.36" height="6.82"/>
	</g>
	<g>
		<path class="st5" d="M41.42,285.52c0,9.93-8.05,17.97-17.97,17.97s-17.97-8.05-17.97-17.97s8.05-17.97,17.97-17.97
			S41.42,275.59,41.42,285.52z"/>
		<rect x="13.27" y="282.11" class="st14" width="20.36" height="6.82"/>
	</g>
	<g>
		<path class="st14" d="M482.09,239.68c0,9.93-8.05,17.97-17.97,17.97c-9.93,0-17.97-8.05-17.97-17.97s8.05-17.97,17.97-17.97
			C474.04,221.71,482.09,229.76,482.09,239.68z"/>
		<rect x="453.93" y="236.27" class="st5" width="20.36" height="6.82"/>
		<rect x="460.7" y="229.5" class="st5" width="6.82" height="20.36"/>
	</g>
	<g>
		<path class="st14" d="M172.17,475.31c0,9.93-8.05,17.97-17.97,17.97c-9.93,0-17.97-8.05-17.97-17.97
			c0-9.92,8.05-17.97,17.97-17.97C164.12,457.34,172.17,465.38,172.17,475.31z"/>
		<rect x="144.02" y="471.9" class="st5" width="20.36" height="6.82"/>
		<rect x="150.79" y="465.13" class="st5" width="6.82" height="20.36"/>
	</g>
	<g>
		<path class="st14" d="M268.08,25.67c0,9.93-8.05,17.97-17.97,17.97c-9.93,0-17.97-8.05-17.97-17.97S240.18,7.7,250.1,7.7
			C260.03,7.7,268.08,15.75,268.08,25.67z"/>
		<rect x="239.92" y="22.26" class="st5" width="20.36" height="6.82"/>
		<rect x="246.69" y="15.49" class="st5" width="6.82" height="20.36"/>
	</g>
	<g>
		<path class="st6" d="M200.65,154.03c18.96-10.95,60.4,12.03,89.55,62.5c29.14,50.47,28.32,97.85,9.36,108.8
			c-18.96,10.95-60.4-12.03-89.55-62.5C180.87,212.36,181.69,164.98,200.65,154.03L200.65,154.03z M194.9,144.07
			c-27.64,15.96-25.34,71.71,5.15,124.51s77.61,82.67,105.26,66.71s25.34-71.71-5.15-124.51
			C269.67,157.98,222.55,128.11,194.9,144.07L194.9,144.07z"/>
		<path class="st14" d="M263.15,159.39L263.15,159.39c8.53-4.92,24.6-12.17,36.41-5.35c18.96,10.95,19.79,58.32-9.36,108.8
			c-14.57,25.23-33.93,46.06-53.14,57.14c-8.53,4.93-24.61,12.17-36.41,5.36c-9.35-5.4-14.26-19.25-13.49-38
			c0.9-21.69,9.01-46.84,22.84-70.8C224.58,191.31,243.94,170.48,263.15,159.39L263.15,159.39z M257.4,149.43
			c-20.2,11.66-41.13,33.26-57.35,61.35c-30.49,52.8-32.79,108.55-5.15,124.51c12.94,7.47,30.14,4.9,47.91-5.36
			c20.2-11.66,41.13-33.26,57.35-61.35c30.49-52.8,32.79-108.55,5.15-124.51C292.37,136.6,275.16,139.17,257.4,149.43L257.4,149.43z
			"/>
		<path class="st3" d="M168.3,200.87l5.75,9.96c19.2-11.09,46.92-17.44,76.05-17.44c58.28,0,98.9,24.4,98.9,46.3
			c0,13.63-14.31,23.93-22.84,28.85c-19.2,11.09-46.92,17.44-76.06,17.44c-27.67,0-53.5-5.55-72.73-15.62
			c-16.63-8.71-26.17-19.89-26.17-30.68c0-13.63,14.31-23.93,22.84-28.85L168.3,200.87L168.3,200.87z M168.3,200.87
			c-17.77,10.26-28.59,23.87-28.59,38.81c0,31.92,49.43,57.8,110.4,57.8c32.44,0,61.61-7.32,81.81-18.99
			c17.77-10.26,28.59-23.87,28.59-38.81c0-31.92-49.43-57.8-110.4-57.8C217.66,181.89,188.5,189.21,168.3,200.87L168.3,200.87z"/>
		
			<ellipse transform="matrix(0.2306 -0.9731 0.9731 0.2306 -41.5868 428.2607)" class="st5" cx="250" cy="240.43" rx="27.44" ry="27.44"/>
		<path class="st6" d="M250,212.99v54.88c15.15,0,27.44-12.28,27.44-27.44C277.44,225.27,265.15,212.99,250,212.99z"/>
	</g>
</g>
</svg>
