<?xml version="1.0" encoding="utf-8"?>
<!-- Generator: Adobe Illustrator 25.0.0, SVG Export Plug-In . SVG Version: 6.00 Build 0)  -->
<svg version="1.1" id="Слой_1" xmlns="http://www.w3.org/2000/svg" xmlns:xlink="http://www.w3.org/1999/xlink" x="0px" y="0px"
	 viewBox="0 0 500 500" style="enable-background:new 0 0 500 500;" xml:space="preserve">
<style type="text/css">
	.st0{fill:#D9648B;}
	.st1{fill:#8DC375;}
	.st2{fill:#64B044;}
	.st3{fill:#DC4437;}
	.st4{fill:#FFFFFF;}
	.st5{fill:#FCF6A8;}
	.st6{fill:#F8EF6C;}
	.st7{fill:#861B47;}
	.st8{fill:#80B36A;}
	.st9{fill:#FC611F;}
	.st10{fill:#3F5CA8;}
	.st11{fill:#E34E10;}
	.st12{fill:#F5B400;}
	.st13{fill:#43459C;}
	.st14{fill:#991C48;}
</style>
<g>
	<circle class="st0" cx="250.09" cy="241.33" r="168.26"/>
	<g>
		<path class="st0" d="M250.09,423.58c-100.49,0-182.25-81.76-182.25-182.25c0-100.49,81.76-182.25,182.25-182.25
			s182.25,81.76,182.25,182.25C432.33,341.82,350.58,423.58,250.09,423.58z M250.09,64.05c-97.76,0-177.29,79.53-177.29,177.29
			c0,97.76,79.53,177.29,177.29,177.29c97.76,0,177.29-79.53,177.29-177.29C427.38,143.58,347.85,64.05,250.09,64.05z"/>
	</g>
	<g>
		<path class="st0" d="M405.04,361.39l-4.06-3.15c26.15-33.71,39.98-74.13,39.98-116.9c0-39.63-12.03-77.63-34.79-109.89l4.2-2.96
			c23.37,33.13,35.73,72.16,35.73,112.85C446.09,285.25,431.9,326.77,405.04,361.39z"/>
	</g>
	<g>
		<path class="st0" d="M440.1,330.65l-4.64-2.19c12.88-27.35,19.41-56.66,19.41-87.13c0-27.87-5.5-54.89-16.34-80.3l4.72-2.01
			c11.12,26.06,16.75,53.75,16.75,82.32C460,272.57,453.31,302.62,440.1,330.65z"/>
	</g>
	<g>
		<path class="st0" d="M94.96,361.39C68.1,326.77,53.9,285.25,53.9,241.34c0-40.69,12.35-79.72,35.73-112.85l4.2,2.96
			c-22.76,32.27-34.79,70.27-34.79,109.89c0,42.77,13.82,83.19,39.98,116.9L94.96,361.39z"/>
	</g>
	<g>
		<path class="st0" d="M59.9,330.65C46.69,302.61,40,272.56,40,241.34c0-28.56,5.64-56.26,16.75-82.32l4.72,2.01
			c-10.84,25.41-16.34,52.43-16.34,80.3c0,30.47,6.53,59.78,19.41,87.13L59.9,330.65z"/>
	</g>
	<g>
		<g>
			<g>
				<g>
					<path class="st1" d="M397.36,297.02c0,0-7.37,0.38-12.14,5.16c-1.94,1.94-3.15,4.3-3.91,6.43v-2.94h-2.75v16.28h2.75v-7.77
						c2.31-0.33,7.32-1.45,10.89-5.02C396.98,304.39,397.36,297.02,397.36,297.02z"/>
				</g>
				<path class="st2" d="M380.11,313.79c-0.03,0.33-0.05,0.53-0.05,0.53s7.37-0.38,12.14-5.16c4.78-4.78,5.16-12.14,5.16-12.14
					s-0.11,0.01-0.32,0.03L380.11,313.79z"/>
			</g>
			<g>
				<path class="st3" d="M399.23,313.15c-6.99,0-13.64,3.37-19.17,8.87c-5.53-5.5-12.18-8.87-19.17-8.87
					c-21.17,0-29.65,26.32-21.98,49.56c5.59,16.93,18.68,27.61,30.47,27.61c3.9,0,7.5-1.08,10.68-2.99
					c3.18,1.91,6.78,2.99,10.68,2.99c11.8,0,24.89-10.68,30.47-27.61C428.89,339.47,420.41,313.15,399.23,313.15z"/>
				<path class="st4" d="M356.48,320.46c-3.54,0-6.41,2.87-6.41,6.41c0,3.54,2.87,6.41,6.41,6.41c3.54,0,6.41-2.87,6.41-6.41
					C362.89,323.34,360.02,320.46,356.48,320.46z M347.54,336.59c-1.39,0-2.52,1.13-2.52,2.52c0,1.39,1.13,2.52,2.52,2.52
					c1.39,0,2.52-1.13,2.52-2.52C350.07,337.72,348.93,336.59,347.54,336.59z"/>
			</g>
		</g>
		<polygon class="st5" points="388.71,414.5 388.71,400.39 372.19,400.39 372.19,414.5 362.8,414.5 380.06,442.12 398.09,414.5 		
			"/>
		<polygon class="st6" points="388.71,414.5 388.71,400.39 380.06,400.39 380.06,442.12 398.09,414.5 		"/>
	</g>
	<g>
		<path class="st3" d="M133.92,74.14l-0.08,52.64c0,13.23-10.73,23.96-23.96,23.96s-23.96-10.73-23.96-23.96l-0.08-52.64H66.88
			v52.64c0,23.75,19.25,43,43,43s43-19.25,43-43V74.14H133.92z"/>
		<path class="st7" d="M133.92,74.14l-0.08,52.64c0,13.23-10.73,23.96-23.96,23.96v19.05c23.75,0,43-19.25,43-43V74.14H133.92z"/>
		<rect x="133.92" y="74.14" class="st5" width="18.97" height="12.13"/>
		<rect x="66.88" y="74.14" class="st5" width="18.97" height="12.13"/>
		<path class="st5" d="M55.56,52.69l-1.12,1.12L69.49,68.8l1.12-1.12L55.56,52.69z M83.31,68.72l14.99-15.05l-1.12-1.12L82.18,67.61
			L83.31,68.72z M75.83,67.06l1.58,0l-0.04-21.41l-1.58,0L75.83,67.06z"/>
		<path class="st5" d="M122.6,52.69l-1.12,1.12l15.05,14.99l1.12-1.12L122.6,52.69z M150.35,68.72l14.99-15.05l-1.12-1.12
			l-14.99,15.05L150.35,68.72z M142.87,67.06l1.58,0l-0.04-21.41l-1.58,0L142.87,67.06z"/>
	</g>
	<circle class="st8" cx="121.48" cy="364.53" r="57.58"/>
	<g>
		<path class="st5" d="M142.12,373.22c8.19-8.19,8.19-21.46,0-29.65c-8.19-8.19-21.46-8.19-29.65,0c-8.11,8.11-7.18,13.79-8.5,21.69
			c-0.87,5.2-4.29,8.63-4.29,8.63l12.12,12.12c0,0,3.42-3.43,8.63-4.29C128.33,380.41,134,381.33,142.12,373.22z"/>
		<path class="st6" d="M142.12,343.57l-36.38,36.38l6.06,6.06c0,0,3.42-3.43,8.63-4.29c7.9-1.31,13.57-0.38,21.69-8.5
			C150.3,365.03,150.3,351.76,142.12,343.57z"/>
		<path class="st9" d="M109.89,384.11l4.51-4.51c1.3-1.3,1.3-3.4,0-4.7l-3.62-3.61c-1.3-1.3-3.4-1.3-4.69,0l-4.51,4.51
			L109.89,384.11z"/>
		
			<rect x="96.49" y="375.21" transform="matrix(0.7071 -0.7071 0.7071 0.7071 -241.5262 184.4649)" class="st10" width="10.84" height="17.13"/>
		<path class="st9" d="M92.02,381.55l-0.62,0.62c-1.3,1.3-1.3,3.4,0,4.69l7.42,7.42c1.3,1.3,3.4,1.3,4.69,0l0.62-0.62L92.02,381.55z
			"/>
		<path class="st5" d="M92.14,393.55c1.64,1.64,4.29,1.64,5.93,0l-5.93-5.93C90.5,389.26,90.5,391.91,92.14,393.55z"/>
		<path class="st11" d="M114.4,374.9l-1.81-1.81l-6.85,6.85l4.16,4.16l4.51-4.51C115.7,378.3,115.7,376.2,114.4,374.9z"/>
		<g>
			<path class="st12" d="M107.21,381.42c0,0,9.66-9.71,12.88-12.93c1.05-1.05,2.51-1.79,3.92-2.5c1.63-0.82,3.31-1.67,3.48-2.7
				c0.12-0.76-0.52-1.87-1.87-3.22c-1.34-1.34-2.46-1.98-3.23-1.86c-1.06,0.17-1.93,1.87-2.76,3.52c-0.7,1.39-1.43,2.82-2.45,3.84
				l-12.91,12.91l-1.27-1.27l12.91-12.91c0.82-0.82,1.48-2.12,2.12-3.39c1.04-2.05,2.12-4.17,4.08-4.48
				c1.42-0.23,2.94,0.53,4.78,2.36c1.84,1.84,2.6,3.36,2.37,4.77c-0.31,1.94-2.41,3-4.44,4.02c-1.28,0.65-2.61,1.32-3.46,2.17
				c-3.22,3.22-12.88,12.93-12.88,12.93L107.21,381.42z"/>
		</g>
		
			<rect x="99.51" y="382.52" transform="matrix(0.7071 -0.7071 0.7071 0.7071 -242.7801 187.4921)" class="st13" width="10.84" height="8.57"/>
		<path class="st6" d="M95.11,390.58l-2.97,2.97c1.64,1.64,4.29,1.64,5.93,0L95.11,390.58z"/>
		<path class="st11" d="M98.08,387.61l-2.97,2.97l3.71,3.71c1.3,1.3,3.4,1.3,4.69,0l0.62-0.62L98.08,387.61z"/>
		<path class="st6" d="M105.16,347.2c0.35-0.5,0.23-1.19-0.27-1.54l-6.46-4.56c-0.5-0.35-1.19-0.23-1.54,0.27
			c-0.31,0.45-0.25,1.05,0.12,1.42c0.04,0.04,0.09,0.09,0.15,0.12l6.46,4.56C104.11,347.82,104.8,347.7,105.16,347.2z
			 M139.02,327.42c0.21-0.57-0.08-1.21-0.66-1.42c-0.57-0.21-1.21,0.08-1.42,0.66l-2.73,7.42c-0.15,0.42-0.04,0.87,0.26,1.17
			c0.11,0.11,0.25,0.2,0.4,0.26c0.57,0.21,1.21-0.08,1.42-0.66L139.02,327.42z M122.34,333.79c0.02,0.27,0.14,0.51,0.32,0.69
			c0.22,0.22,0.54,0.35,0.88,0.32c0.61-0.05,1.06-0.59,1.01-1.2l-0.66-7.88c-0.05-0.61-0.59-1.06-1.2-1.01
			c-0.61,0.05-1.06,0.59-1.01,1.2L122.34,333.79z M107.53,331.69l3.93,6.86c0.05,0.09,0.11,0.17,0.18,0.23
			c0.34,0.34,0.89,0.43,1.33,0.18c0.53-0.3,0.71-0.98,0.41-1.51l-3.93-6.86c-0.3-0.53-0.98-0.71-1.51-0.41
			C107.41,330.49,107.23,331.16,107.53,331.69z M100.66,356.68l-7.78-1.4c-0.6-0.11-1.18,0.29-1.28,0.89
			c-0.07,0.37,0.06,0.73,0.31,0.98c0.15,0.15,0.36,0.26,0.59,0.31l7.78,1.4c0.6,0.11,1.18-0.29,1.28-0.89
			C101.66,357.36,101.26,356.79,100.66,356.68z M151.95,333.74c-0.42-0.36-1.08-0.37-1.49,0.04l-5.61,5.57
			c-0.42,0.42-0.43,1.09-0.03,1.52c0.44,0.39,1.1,0.39,1.52-0.03l5.57-5.61C152.32,334.82,152.31,334.16,151.95,333.74z
			 M151.21,363.03c0.18,0.18,0.42,0.3,0.69,0.32l7.88,0.66c0.61,0.05,1.14-0.4,1.2-1.01c0.05-0.61-0.4-1.14-1.01-1.2l-7.88-0.66
			c-0.61-0.05-1.14,0.4-1.2,1.01C150.86,362.49,150.99,362.81,151.21,363.03z M146.73,372.72c-0.25,0.44-0.17,0.99,0.18,1.33
			c0.07,0.07,0.15,0.13,0.23,0.18l6.86,3.93c0.53,0.3,1.21,0.12,1.51-0.41c0.3-0.53,0.12-1.21-0.41-1.51l-6.86-3.93
			C147.71,372,147.03,372.19,146.73,372.72z M144.59,387.26l-4.56-6.46c-0.35-0.5-1.04-0.62-1.54-0.27
			c-0.5,0.35-0.62,1.04-0.27,1.54l4.56,6.46c0.04,0.05,0.08,0.1,0.12,0.15c0.37,0.37,0.97,0.44,1.42,0.12
			C144.82,388.45,144.94,387.76,144.59,387.26z M129.01,385.03c-0.11-0.6-0.68-1-1.29-0.89c-0.6,0.11-1,0.68-0.89,1.28l1.4,7.78
			c0.04,0.23,0.15,0.43,0.31,0.59c0.25,0.25,0.61,0.37,0.98,0.31c0.6-0.11,1-0.68,0.89-1.28L129.01,385.03z M159.69,347.33
			c-0.21-0.57-0.85-0.87-1.42-0.66l-7.42,2.73c-0.57,0.21-0.87,0.85-0.66,1.42c0.06,0.16,0.15,0.29,0.26,0.4
			c0.3,0.3,0.75,0.41,1.17,0.26l7.42-2.73C159.61,348.54,159.9,347.9,159.69,347.33z"/>
	</g>
	<g>
		<path class="st5" d="M351.38,82.67c0,8.34-6.76,15.1-15.1,15.1c-8.34,0-15.1-6.76-15.1-15.1s6.76-15.1,15.1-15.1
			C344.62,67.58,351.38,74.34,351.38,82.67z"/>
		<rect x="327.73" y="79.81" class="st14" width="17.1" height="5.73"/>
	</g>
	<g>
		<path class="st5" d="M74.79,279.84c0,8.34-6.76,15.1-15.1,15.1s-15.1-6.76-15.1-15.1s6.76-15.1,15.1-15.1
			S74.79,271.5,74.79,279.84z"/>
		<rect x="51.15" y="276.97" class="st14" width="17.1" height="5.73"/>
	</g>
	<g>
		<path class="st14" d="M444.95,241.33c0,8.34-6.76,15.1-15.1,15.1s-15.1-6.76-15.1-15.1s6.76-15.1,15.1-15.1
			S444.95,233,444.95,241.33z"/>
		<rect x="421.3" y="238.47" class="st5" width="17.1" height="5.73"/>
		<rect x="426.99" y="232.78" class="st5" width="5.73" height="17.1"/>
	</g>
	<g>
		<path class="st14" d="M184.62,439.26c0,8.34-6.76,15.1-15.1,15.1s-15.1-6.76-15.1-15.1s6.76-15.1,15.1-15.1
			S184.62,430.92,184.62,439.26z"/>
		<rect x="160.98" y="436.39" class="st5" width="17.1" height="5.73"/>
		<rect x="166.66" y="430.71" class="st5" width="5.73" height="17.1"/>
	</g>
	<g>
		<path class="st14" d="M265.18,61.57c0,8.34-6.76,15.1-15.1,15.1c-8.34,0-15.1-6.76-15.1-15.1s6.76-15.1,15.1-15.1
			C258.42,46.47,265.18,53.23,265.18,61.57z"/>
		<rect x="241.54" y="58.7" class="st5" width="17.1" height="5.73"/>
		<rect x="247.22" y="53.01" class="st5" width="5.73" height="17.1"/>
	</g>
	<g>
		<path class="st6" d="M208.55,169.39c15.93-9.2,50.74,10.1,75.22,52.5s23.79,82.19,7.86,91.39c-15.93,9.2-50.74-10.1-75.22-52.5
			C191.93,218.38,192.62,178.59,208.55,169.39L208.55,169.39z M203.72,161.02c-23.22,13.41-21.29,60.23,4.32,104.59
			s65.19,69.44,88.41,56.04c23.22-13.41,21.29-60.23-4.32-104.59S226.94,147.61,203.72,161.02L203.72,161.02z"/>
		<path class="st14" d="M261.05,173.89L261.05,173.89c7.16-4.14,20.67-10.22,30.58-4.5c15.93,9.2,16.62,48.99-7.86,91.39
			c-12.24,21.19-28.5,38.69-44.63,48c-7.17,4.14-20.67,10.22-30.58,4.5c-7.85-4.53-11.98-16.17-11.33-31.92
			c0.75-18.22,7.57-39.34,19.19-59.47C228.64,200.7,244.91,183.2,261.05,173.89L261.05,173.89z M256.21,165.52
			c-16.97,9.8-34.55,27.94-48.17,51.54c-25.61,44.36-27.54,91.18-4.32,104.59c10.87,6.27,25.32,4.12,40.24-4.5
			c16.97-9.8,34.55-27.94,48.17-51.54c25.61-44.36,27.54-91.18,4.32-104.59C285.59,154.75,271.14,156.9,256.21,165.52L256.21,165.52
			z"/>
		<path class="st3" d="M181.37,208.73l4.83,8.37c16.13-9.31,39.41-14.65,63.88-14.65c48.96,0,83.08,20.5,83.08,38.89
			c0,11.45-12.02,20.1-19.19,24.24c-16.13,9.31-39.42,14.65-63.89,14.65c-23.24,0-44.94-4.66-61.09-13.12
			c-13.97-7.31-21.98-16.71-21.98-25.77c0-11.45,12.02-20.1,19.19-24.24L181.37,208.73L181.37,208.73z M181.37,208.73
			c-14.92,8.62-24.02,20.05-24.02,32.6c0,26.81,41.52,48.55,92.74,48.55c27.25,0,51.75-6.15,68.72-15.95
			c14.92-8.62,24.02-20.05,24.02-32.6c0-26.81-41.52-48.55-92.74-48.55C222.84,192.78,198.34,198.93,181.37,208.73L181.37,208.73z"
			/>
		
			<ellipse transform="matrix(0.2306 -0.9731 0.9731 0.2306 -43.0773 429.4394)" class="st5" cx="250" cy="241.96" rx="23.05" ry="23.05"/>
		<path class="st6" d="M250,218.91v46.1c12.73,0,23.05-10.32,23.05-23.05C273.05,229.23,262.73,218.91,250,218.91z"/>
	</g>
</g>
</svg>
